<?xml version="1.0" encoding="utf-8" standalone="no"?>
<!DOCTYPE svg PUBLIC "-//W3C//DTD SVG 1.1//EN"
  "http://www.w3.org/Graphics/SVG/1.1/DTD/svg11.dtd">
<svg xmlns:xlink="http://www.w3.org/1999/xlink" width="460.8pt" height="345.6pt" viewBox="0 0 460.8 345.6" xmlns="http://www.w3.org/2000/svg" version="1.1">
 <metadata>
  <rdf:RDF xmlns:dc="http://purl.org/dc/elements/1.1/" xmlns:cc="http://creativecommons.org/ns#" xmlns:rdf="http://www.w3.org/1999/02/22-rdf-syntax-ns#">
   <cc:Work>
    <dc:type rdf:resource="http://purl.org/dc/dcmitype/StillImage"/>
    <dc:date>2026-05-01T15:20:57.439323</dc:date>
    <dc:format>image/svg+xml</dc:format>
    <dc:creator>
     <cc:Agent>
      <dc:title>Matplotlib v3.10.9, https://matplotlib.org/</dc:title>
     </cc:Agent>
    </dc:creator>
   </cc:Work>
  </rdf:RDF>
 </metadata>
 <defs>
  <style type="text/css">*{stroke-linejoin: round; stroke-linecap: butt}</style>
 </defs>
 <g id="figure_1">
  <g id="patch_1">
   <path d="M 0 345.6 
L 460.8 345.6 
L 460.8 0 
L 0 0 
z
" style="fill: #ffffff"/>
  </g>
  <g id="axes_1">
   <g id="patch_2">
    <path d="M 57.6 307.584 
L 414.72 307.584 
L 414.72 41.472 
L 57.6 41.472 
z
" style="fill: #ffffff"/>
   </g>
   <g id="patch_3">
    <path d="M 73.832727 307.584 
L 76.264597 307.584 
L 76.264597 54.144 
L 73.832727 54.144 
z
" clip-path="url(#p895c38081a)"/>
   </g>
   <g id="patch_4">
    <path d="M 76.872564 307.584 
L 79.304433 307.584 
L 79.304433 82.304 
L 76.872564 82.304 
z
" clip-path="url(#p895c38081a)"/>
   </g>
   <g id="patch_5">
    <path d="M 79.9124 307.584 
L 82.34427 307.584 
L 82.34427 110.464 
L 79.9124 110.464 
z
" clip-path="url(#p895c38081a)"/>
   </g>
   <g id="patch_6">
    <path d="M 82.952237 307.584 
L 85.384106 307.584 
L 85.384106 110.464 
L 82.952237 110.464 
z
" clip-path="url(#p895c38081a)"/>
   </g>
   <g id="patch_7">
    <path d="M 85.992074 307.584 
L 88.423943 307.584 
L 88.423943 110.464 
L 85.992074 110.464 
z
" clip-path="url(#p895c38081a)"/>
   </g>
   <g id="patch_8">
    <path d="M 89.03191 307.584 
L 91.463779 307.584 
L 91.463779 138.624 
L 89.03191 138.624 
z
" clip-path="url(#p895c38081a)"/>
   </g>
   <g id="patch_9">
    <path d="M 92.071747 307.584 
L 94.503616 307.584 
L 94.503616 138.624 
L 92.071747 138.624 
z
" clip-path="url(#p895c38081a)"/>
   </g>
   <g id="patch_10">
    <path d="M 95.111583 307.584 
L 97.543453 307.584 
L 97.543453 166.784 
L 95.111583 166.784 
z
" clip-path="url(#p895c38081a)"/>
   </g>
   <g id="patch_11">
    <path d="M 98.15142 307.584 
L 100.583289 307.584 
L 100.583289 223.104 
L 98.15142 223.104 
z
" clip-path="url(#p895c38081a)"/>
   </g>
   <g id="patch_12">
    <path d="M 101.191256 307.584 
L 103.623126 307.584 
L 103.623126 223.104 
L 101.191256 223.104 
z
" clip-path="url(#p895c38081a)"/>
   </g>
   <g id="patch_13">
    <path d="M 104.231093 307.584 
L 106.662962 307.584 
L 106.662962 223.104 
L 104.231093 223.104 
z
" clip-path="url(#p895c38081a)"/>
   </g>
   <g id="patch_14">
    <path d="M 107.27093 307.584 
L 109.702799 307.584 
L 109.702799 251.264 
L 107.27093 251.264 
z
" clip-path="url(#p895c38081a)"/>
   </g>
   <g id="patch_15">
    <path d="M 110.310766 307.584 
L 112.742635 307.584 
L 112.742635 251.264 
L 110.310766 251.264 
z
" clip-path="url(#p895c38081a)"/>
   </g>
   <g id="patch_16">
    <path d="M 113.350603 307.584 
L 115.782472 307.584 
L 115.782472 251.264 
L 113.350603 251.264 
z
" clip-path="url(#p895c38081a)"/>
   </g>
   <g id="patch_17">
    <path d="M 116.390439 307.584 
L 118.822308 307.584 
L 118.822308 251.264 
L 116.390439 251.264 
z
" clip-path="url(#p895c38081a)"/>
   </g>
   <g id="patch_18">
    <path d="M 119.430276 307.584 
L 121.862145 307.584 
L 121.862145 251.264 
L 119.430276 251.264 
z
" clip-path="url(#p895c38081a)"/>
   </g>
   <g id="patch_19">
    <path d="M 122.470112 307.584 
L 124.901982 307.584 
L 124.901982 251.264 
L 122.470112 251.264 
z
" clip-path="url(#p895c38081a)"/>
   </g>
   <g id="patch_20">
    <path d="M 125.509949 307.584 
L 127.941818 307.584 
L 127.941818 251.264 
L 125.509949 251.264 
z
" clip-path="url(#p895c38081a)"/>
   </g>
   <g id="patch_21">
    <path d="M 128.549785 307.584 
L 130.981655 307.584 
L 130.981655 251.264 
L 128.549785 251.264 
z
" clip-path="url(#p895c38081a)"/>
   </g>
   <g id="patch_22">
    <path d="M 131.589622 307.584 
L 134.021491 307.584 
L 134.021491 251.264 
L 131.589622 251.264 
z
" clip-path="url(#p895c38081a)"/>
   </g>
   <g id="patch_23">
    <path d="M 134.629459 307.584 
L 137.061328 307.584 
L 137.061328 251.264 
L 134.629459 251.264 
z
" clip-path="url(#p895c38081a)"/>
   </g>
   <g id="patch_24">
    <path d="M 137.669295 307.584 
L 140.101164 307.584 
L 140.101164 251.264 
L 137.669295 251.264 
z
" clip-path="url(#p895c38081a)"/>
   </g>
   <g id="patch_25">
    <path d="M 140.709132 307.584 
L 143.141001 307.584 
L 143.141001 279.424 
L 140.709132 279.424 
z
" clip-path="url(#p895c38081a)"/>
   </g>
   <g id="patch_26">
    <path d="M 143.748968 307.584 
L 146.180838 307.584 
L 146.180838 279.424 
L 143.748968 279.424 
z
" clip-path="url(#p895c38081a)"/>
   </g>
   <g id="patch_27">
    <path d="M 146.788805 307.584 
L 149.220674 307.584 
L 149.220674 279.424 
L 146.788805 279.424 
z
" clip-path="url(#p895c38081a)"/>
   </g>
   <g id="patch_28">
    <path d="M 149.828641 307.584 
L 152.260511 307.584 
L 152.260511 279.424 
L 149.828641 279.424 
z
" clip-path="url(#p895c38081a)"/>
   </g>
   <g id="patch_29">
    <path d="M 152.868478 307.584 
L 155.300347 307.584 
L 155.300347 279.424 
L 152.868478 279.424 
z
" clip-path="url(#p895c38081a)"/>
   </g>
   <g id="patch_30">
    <path d="M 155.908315 307.584 
L 158.340184 307.584 
L 158.340184 279.424 
L 155.908315 279.424 
z
" clip-path="url(#p895c38081a)"/>
   </g>
   <g id="patch_31">
    <path d="M 158.948151 307.584 
L 161.38002 307.584 
L 161.38002 279.424 
L 158.948151 279.424 
z
" clip-path="url(#p895c38081a)"/>
   </g>
   <g id="patch_32">
    <path d="M 161.987988 307.584 
L 164.419857 307.584 
L 164.419857 279.424 
L 161.987988 279.424 
z
" clip-path="url(#p895c38081a)"/>
   </g>
   <g id="patch_33">
    <path d="M 165.027824 307.584 
L 167.459694 307.584 
L 167.459694 279.424 
L 165.027824 279.424 
z
" clip-path="url(#p895c38081a)"/>
   </g>
   <g id="patch_34">
    <path d="M 168.067661 307.584 
L 170.49953 307.584 
L 170.49953 279.424 
L 168.067661 279.424 
z
" clip-path="url(#p895c38081a)"/>
   </g>
   <g id="patch_35">
    <path d="M 171.107497 307.584 
L 173.539367 307.584 
L 173.539367 279.424 
L 171.107497 279.424 
z
" clip-path="url(#p895c38081a)"/>
   </g>
   <g id="patch_36">
    <path d="M 174.147334 307.584 
L 176.579203 307.584 
L 176.579203 279.424 
L 174.147334 279.424 
z
" clip-path="url(#p895c38081a)"/>
   </g>
   <g id="patch_37">
    <path d="M 177.187171 307.584 
L 179.61904 307.584 
L 179.61904 279.424 
L 177.187171 279.424 
z
" clip-path="url(#p895c38081a)"/>
   </g>
   <g id="patch_38">
    <path d="M 180.227007 307.584 
L 182.658876 307.584 
L 182.658876 279.424 
L 180.227007 279.424 
z
" clip-path="url(#p895c38081a)"/>
   </g>
   <g id="patch_39">
    <path d="M 183.266844 307.584 
L 185.698713 307.584 
L 185.698713 279.424 
L 183.266844 279.424 
z
" clip-path="url(#p895c38081a)"/>
   </g>
   <g id="patch_40">
    <path d="M 186.30668 307.584 
L 188.73855 307.584 
L 188.73855 279.424 
L 186.30668 279.424 
z
" clip-path="url(#p895c38081a)"/>
   </g>
   <g id="patch_41">
    <path d="M 189.346517 307.584 
L 191.778386 307.584 
L 191.778386 279.424 
L 189.346517 279.424 
z
" clip-path="url(#p895c38081a)"/>
   </g>
   <g id="patch_42">
    <path d="M 192.386353 307.584 
L 194.818223 307.584 
L 194.818223 279.424 
L 192.386353 279.424 
z
" clip-path="url(#p895c38081a)"/>
   </g>
   <g id="patch_43">
    <path d="M 195.42619 307.584 
L 197.858059 307.584 
L 197.858059 279.424 
L 195.42619 279.424 
z
" clip-path="url(#p895c38081a)"/>
   </g>
   <g id="patch_44">
    <path d="M 198.466027 307.584 
L 200.897896 307.584 
L 200.897896 279.424 
L 198.466027 279.424 
z
" clip-path="url(#p895c38081a)"/>
   </g>
   <g id="patch_45">
    <path d="M 201.505863 307.584 
L 203.937732 307.584 
L 203.937732 279.424 
L 201.505863 279.424 
z
" clip-path="url(#p895c38081a)"/>
   </g>
   <g id="patch_46">
    <path d="M 204.5457 307.584 
L 206.977569 307.584 
L 206.977569 279.424 
L 204.5457 279.424 
z
" clip-path="url(#p895c38081a)"/>
   </g>
   <g id="patch_47">
    <path d="M 207.585536 307.584 
L 210.017406 307.584 
L 210.017406 279.424 
L 207.585536 279.424 
z
" clip-path="url(#p895c38081a)"/>
   </g>
   <g id="patch_48">
    <path d="M 210.625373 307.584 
L 213.057242 307.584 
L 213.057242 279.424 
L 210.625373 279.424 
z
" clip-path="url(#p895c38081a)"/>
   </g>
   <g id="patch_49">
    <path d="M 213.665209 307.584 
L 216.097079 307.584 
L 216.097079 279.424 
L 213.665209 279.424 
z
" clip-path="url(#p895c38081a)"/>
   </g>
   <g id="patch_50">
    <path d="M 216.705046 307.584 
L 219.136915 307.584 
L 219.136915 279.424 
L 216.705046 279.424 
z
" clip-path="url(#p895c38081a)"/>
   </g>
   <g id="patch_51">
    <path d="M 219.744883 307.584 
L 222.176752 307.584 
L 222.176752 279.424 
L 219.744883 279.424 
z
" clip-path="url(#p895c38081a)"/>
   </g>
   <g id="patch_52">
    <path d="M 222.784719 307.584 
L 225.216588 307.584 
L 225.216588 279.424 
L 222.784719 279.424 
z
" clip-path="url(#p895c38081a)"/>
   </g>
   <g id="patch_53">
    <path d="M 225.824556 307.584 
L 228.256425 307.584 
L 228.256425 279.424 
L 225.824556 279.424 
z
" clip-path="url(#p895c38081a)"/>
   </g>
   <g id="patch_54">
    <path d="M 228.864392 307.584 
L 231.296261 307.584 
L 231.296261 279.424 
L 228.864392 279.424 
z
" clip-path="url(#p895c38081a)"/>
   </g>
   <g id="patch_55">
    <path d="M 231.904229 307.584 
L 234.336098 307.584 
L 234.336098 279.424 
L 231.904229 279.424 
z
" clip-path="url(#p895c38081a)"/>
   </g>
   <g id="patch_56">
    <path d="M 234.944065 307.584 
L 237.375935 307.584 
L 237.375935 279.424 
L 234.944065 279.424 
z
" clip-path="url(#p895c38081a)"/>
   </g>
   <g id="patch_57">
    <path d="M 237.983902 307.584 
L 240.415771 307.584 
L 240.415771 279.424 
L 237.983902 279.424 
z
" clip-path="url(#p895c38081a)"/>
   </g>
   <g id="patch_58">
    <path d="M 241.023739 307.584 
L 243.455608 307.584 
L 243.455608 279.424 
L 241.023739 279.424 
z
" clip-path="url(#p895c38081a)"/>
   </g>
   <g id="patch_59">
    <path d="M 244.063575 307.584 
L 246.495444 307.584 
L 246.495444 279.424 
L 244.063575 279.424 
z
" clip-path="url(#p895c38081a)"/>
   </g>
   <g id="patch_60">
    <path d="M 247.103412 307.584 
L 249.535281 307.584 
L 249.535281 279.424 
L 247.103412 279.424 
z
" clip-path="url(#p895c38081a)"/>
   </g>
   <g id="patch_61">
    <path d="M 250.143248 307.584 
L 252.575117 307.584 
L 252.575117 279.424 
L 250.143248 279.424 
z
" clip-path="url(#p895c38081a)"/>
   </g>
   <g id="patch_62">
    <path d="M 253.183085 307.584 
L 255.614954 307.584 
L 255.614954 279.424 
L 253.183085 279.424 
z
" clip-path="url(#p895c38081a)"/>
   </g>
   <g id="patch_63">
    <path d="M 256.222921 307.584 
L 258.654791 307.584 
L 258.654791 279.424 
L 256.222921 279.424 
z
" clip-path="url(#p895c38081a)"/>
   </g>
   <g id="patch_64">
    <path d="M 259.262758 307.584 
L 261.694627 307.584 
L 261.694627 279.424 
L 259.262758 279.424 
z
" clip-path="url(#p895c38081a)"/>
   </g>
   <g id="patch_65">
    <path d="M 262.302594 307.584 
L 264.734464 307.584 
L 264.734464 279.424 
L 262.302594 279.424 
z
" clip-path="url(#p895c38081a)"/>
   </g>
   <g id="patch_66">
    <path d="M 265.342431 307.584 
L 267.7743 307.584 
L 267.7743 279.424 
L 265.342431 279.424 
z
" clip-path="url(#p895c38081a)"/>
   </g>
   <g id="patch_67">
    <path d="M 268.382268 307.584 
L 270.814137 307.584 
L 270.814137 279.424 
L 268.382268 279.424 
z
" clip-path="url(#p895c38081a)"/>
   </g>
   <g id="patch_68">
    <path d="M 271.422104 307.584 
L 273.853973 307.584 
L 273.853973 279.424 
L 271.422104 279.424 
z
" clip-path="url(#p895c38081a)"/>
   </g>
   <g id="patch_69">
    <path d="M 274.461941 307.584 
L 276.89381 307.584 
L 276.89381 279.424 
L 274.461941 279.424 
z
" clip-path="url(#p895c38081a)"/>
   </g>
   <g id="patch_70">
    <path d="M 277.501777 307.584 
L 279.933647 307.584 
L 279.933647 279.424 
L 277.501777 279.424 
z
" clip-path="url(#p895c38081a)"/>
   </g>
   <g id="patch_71">
    <path d="M 280.541614 307.584 
L 282.973483 307.584 
L 282.973483 279.424 
L 280.541614 279.424 
z
" clip-path="url(#p895c38081a)"/>
   </g>
   <g id="patch_72">
    <path d="M 283.58145 307.584 
L 286.01332 307.584 
L 286.01332 279.424 
L 283.58145 279.424 
z
" clip-path="url(#p895c38081a)"/>
   </g>
   <g id="patch_73">
    <path d="M 286.621287 307.584 
L 289.053156 307.584 
L 289.053156 279.424 
L 286.621287 279.424 
z
" clip-path="url(#p895c38081a)"/>
   </g>
   <g id="patch_74">
    <path d="M 289.661124 307.584 
L 292.092993 307.584 
L 292.092993 279.424 
L 289.661124 279.424 
z
" clip-path="url(#p895c38081a)"/>
   </g>
   <g id="patch_75">
    <path d="M 292.70096 307.584 
L 295.132829 307.584 
L 295.132829 279.424 
L 292.70096 279.424 
z
" clip-path="url(#p895c38081a)"/>
   </g>
   <g id="patch_76">
    <path d="M 295.740797 307.584 
L 298.172666 307.584 
L 298.172666 279.424 
L 295.740797 279.424 
z
" clip-path="url(#p895c38081a)"/>
   </g>
   <g id="patch_77">
    <path d="M 298.780633 307.584 
L 301.212503 307.584 
L 301.212503 279.424 
L 298.780633 279.424 
z
" clip-path="url(#p895c38081a)"/>
   </g>
   <g id="patch_78">
    <path d="M 301.82047 307.584 
L 304.252339 307.584 
L 304.252339 279.424 
L 301.82047 279.424 
z
" clip-path="url(#p895c38081a)"/>
   </g>
   <g id="patch_79">
    <path d="M 304.860306 307.584 
L 307.292176 307.584 
L 307.292176 279.424 
L 304.860306 279.424 
z
" clip-path="url(#p895c38081a)"/>
   </g>
   <g id="patch_80">
    <path d="M 307.900143 307.584 
L 310.332012 307.584 
L 310.332012 279.424 
L 307.900143 279.424 
z
" clip-path="url(#p895c38081a)"/>
   </g>
   <g id="patch_81">
    <path d="M 310.93998 307.584 
L 313.371849 307.584 
L 313.371849 279.424 
L 310.93998 279.424 
z
" clip-path="url(#p895c38081a)"/>
   </g>
   <g id="patch_82">
    <path d="M 313.979816 307.584 
L 316.411685 307.584 
L 316.411685 279.424 
L 313.979816 279.424 
z
" clip-path="url(#p895c38081a)"/>
   </g>
   <g id="patch_83">
    <path d="M 317.019653 307.584 
L 319.451522 307.584 
L 319.451522 279.424 
L 317.019653 279.424 
z
" clip-path="url(#p895c38081a)"/>
   </g>
   <g id="patch_84">
    <path d="M 320.059489 307.584 
L 322.491359 307.584 
L 322.491359 279.424 
L 320.059489 279.424 
z
" clip-path="url(#p895c38081a)"/>
   </g>
   <g id="patch_85">
    <path d="M 323.099326 307.584 
L 325.531195 307.584 
L 325.531195 279.424 
L 323.099326 279.424 
z
" clip-path="url(#p895c38081a)"/>
   </g>
   <g id="patch_86">
    <path d="M 326.139162 307.584 
L 328.571032 307.584 
L 328.571032 279.424 
L 326.139162 279.424 
z
" clip-path="url(#p895c38081a)"/>
   </g>
   <g id="patch_87">
    <path d="M 329.178999 307.584 
L 331.610868 307.584 
L 331.610868 279.424 
L 329.178999 279.424 
z
" clip-path="url(#p895c38081a)"/>
   </g>
   <g id="patch_88">
    <path d="M 332.218836 307.584 
L 334.650705 307.584 
L 334.650705 279.424 
L 332.218836 279.424 
z
" clip-path="url(#p895c38081a)"/>
   </g>
   <g id="patch_89">
    <path d="M 335.258672 307.584 
L 337.690541 307.584 
L 337.690541 279.424 
L 335.258672 279.424 
z
" clip-path="url(#p895c38081a)"/>
   </g>
   <g id="patch_90">
    <path d="M 338.298509 307.584 
L 340.730378 307.584 
L 340.730378 279.424 
L 338.298509 279.424 
z
" clip-path="url(#p895c38081a)"/>
   </g>
   <g id="patch_91">
    <path d="M 341.338345 307.584 
L 343.770215 307.584 
L 343.770215 279.424 
L 341.338345 279.424 
z
" clip-path="url(#p895c38081a)"/>
   </g>
   <g id="patch_92">
    <path d="M 344.378182 307.584 
L 346.810051 307.584 
L 346.810051 279.424 
L 344.378182 279.424 
z
" clip-path="url(#p895c38081a)"/>
   </g>
   <g id="patch_93">
    <path d="M 347.418018 307.584 
L 349.849888 307.584 
L 349.849888 279.424 
L 347.418018 279.424 
z
" clip-path="url(#p895c38081a)"/>
   </g>
   <g id="patch_94">
    <path d="M 350.457855 307.584 
L 352.889724 307.584 
L 352.889724 279.424 
L 350.457855 279.424 
z
" clip-path="url(#p895c38081a)"/>
   </g>
   <g id="patch_95">
    <path d="M 353.497692 307.584 
L 355.929561 307.584 
L 355.929561 279.424 
L 353.497692 279.424 
z
" clip-path="url(#p895c38081a)"/>
   </g>
   <g id="patch_96">
    <path d="M 356.537528 307.584 
L 358.969397 307.584 
L 358.969397 279.424 
L 356.537528 279.424 
z
" clip-path="url(#p895c38081a)"/>
   </g>
   <g id="patch_97">
    <path d="M 359.577365 307.584 
L 362.009234 307.584 
L 362.009234 279.424 
L 359.577365 279.424 
z
" clip-path="url(#p895c38081a)"/>
   </g>
   <g id="patch_98">
    <path d="M 362.617201 307.584 
L 365.04907 307.584 
L 365.04907 279.424 
L 362.617201 279.424 
z
" clip-path="url(#p895c38081a)"/>
   </g>
   <g id="patch_99">
    <path d="M 365.657038 307.584 
L 368.088907 307.584 
L 368.088907 279.424 
L 365.657038 279.424 
z
" clip-path="url(#p895c38081a)"/>
   </g>
   <g id="patch_100">
    <path d="M 368.696874 307.584 
L 371.128744 307.584 
L 371.128744 279.424 
L 368.696874 279.424 
z
" clip-path="url(#p895c38081a)"/>
   </g>
   <g id="patch_101">
    <path d="M 371.736711 307.584 
L 374.16858 307.584 
L 374.16858 279.424 
L 371.736711 279.424 
z
" clip-path="url(#p895c38081a)"/>
   </g>
   <g id="patch_102">
    <path d="M 374.776547 307.584 
L 377.208417 307.584 
L 377.208417 279.424 
L 374.776547 279.424 
z
" clip-path="url(#p895c38081a)"/>
   </g>
   <g id="patch_103">
    <path d="M 377.816384 307.584 
L 380.248253 307.584 
L 380.248253 279.424 
L 377.816384 279.424 
z
" clip-path="url(#p895c38081a)"/>
   </g>
   <g id="patch_104">
    <path d="M 380.856221 307.584 
L 383.28809 307.584 
L 383.28809 279.424 
L 380.856221 279.424 
z
" clip-path="url(#p895c38081a)"/>
   </g>
   <g id="patch_105">
    <path d="M 383.896057 307.584 
L 386.327926 307.584 
L 386.327926 279.424 
L 383.896057 279.424 
z
" clip-path="url(#p895c38081a)"/>
   </g>
   <g id="patch_106">
    <path d="M 386.935894 307.584 
L 389.367763 307.584 
L 389.367763 279.424 
L 386.935894 279.424 
z
" clip-path="url(#p895c38081a)"/>
   </g>
   <g id="patch_107">
    <path d="M 389.97573 307.584 
L 392.4076 307.584 
L 392.4076 279.424 
L 389.97573 279.424 
z
" clip-path="url(#p895c38081a)"/>
   </g>
   <g id="patch_108">
    <path d="M 393.015567 307.584 
L 395.447436 307.584 
L 395.447436 279.424 
L 393.015567 279.424 
z
" clip-path="url(#p895c38081a)"/>
   </g>
   <g id="patch_109">
    <path d="M 396.055403 307.584 
L 398.487273 307.584 
L 398.487273 279.424 
L 396.055403 279.424 
z
" clip-path="url(#p895c38081a)"/>
   </g>
   <g id="matplotlib.axis_1">
    <g id="xtick_1">
     <g id="line2d_1">
      <defs>
       <path id="m268ff52629" d="M 0 0 
L 0 3.5 
" style="stroke: #000000; stroke-width: 0.8"/>
      </defs>
      <g>
       <use xlink:href="#m268ff52629" x="72.008825" y="307.584" style="stroke: #000000; stroke-width: 0.8"/>
      </g>
     </g>
     <g id="text_1">
      <!-- 0 -->
      <g transform="translate(68.827575 322.182437) scale(0.1 -0.1)">
       <defs>
        <path id="DejaVuSans-30" d="M 2034 4250 
Q 1547 4250 1301 3770 
Q 1056 3291 1056 2328 
Q 1056 1369 1301 889 
Q 1547 409 2034 409 
Q 2525 409 2770 889 
Q 3016 1369 3016 2328 
Q 3016 3291 2770 3770 
Q 2525 4250 2034 4250 
z
M 2034 4750 
Q 2819 4750 3233 4129 
Q 3647 3509 3647 2328 
Q 3647 1150 3233 529 
Q 2819 -91 2034 -91 
Q 1250 -91 836 529 
Q 422 1150 422 2328 
Q 422 3509 836 4129 
Q 1250 4750 2034 4750 
z
" transform="scale(0.015625)"/>
       </defs>
       <use xlink:href="#DejaVuSans-30"/>
      </g>
     </g>
    </g>
    <g id="xtick_2">
     <g id="line2d_2">
      <g>
       <use xlink:href="#m268ff52629" x="132.805557" y="307.584" style="stroke: #000000; stroke-width: 0.8"/>
      </g>
     </g>
     <g id="text_2">
      <!-- 20 -->
      <g transform="translate(126.443057 322.182437) scale(0.1 -0.1)">
       <defs>
        <path id="DejaVuSans-32" d="M 1228 531 
L 3431 531 
L 3431 0 
L 469 0 
L 469 531 
Q 828 903 1448 1529 
Q 2069 2156 2228 2338 
Q 2531 2678 2651 2914 
Q 2772 3150 2772 3378 
Q 2772 3750 2511 3984 
Q 2250 4219 1831 4219 
Q 1534 4219 1204 4116 
Q 875 4013 500 3803 
L 500 4441 
Q 881 4594 1212 4672 
Q 1544 4750 1819 4750 
Q 2544 4750 2975 4387 
Q 3406 4025 3406 3419 
Q 3406 3131 3298 2873 
Q 3191 2616 2906 2266 
Q 2828 2175 2409 1742 
Q 1991 1309 1228 531 
z
" transform="scale(0.015625)"/>
       </defs>
       <use xlink:href="#DejaVuSans-32"/>
       <use xlink:href="#DejaVuSans-30" transform="translate(63.623047 0)"/>
      </g>
     </g>
    </g>
    <g id="xtick_3">
     <g id="line2d_3">
      <g>
       <use xlink:href="#m268ff52629" x="193.602288" y="307.584" style="stroke: #000000; stroke-width: 0.8"/>
      </g>
     </g>
     <g id="text_3">
      <!-- 40 -->
      <g transform="translate(187.239788 322.182437) scale(0.1 -0.1)">
       <defs>
        <path id="DejaVuSans-34" d="M 2419 4116 
L 825 1625 
L 2419 1625 
L 2419 4116 
z
M 2253 4666 
L 3047 4666 
L 3047 1625 
L 3713 1625 
L 3713 1100 
L 3047 1100 
L 3047 0 
L 2419 0 
L 2419 1100 
L 313 1100 
L 313 1709 
L 2253 4666 
z
" transform="scale(0.015625)"/>
       </defs>
       <use xlink:href="#DejaVuSans-34"/>
       <use xlink:href="#DejaVuSans-30" transform="translate(63.623047 0)"/>
      </g>
     </g>
    </g>
    <g id="xtick_4">
     <g id="line2d_4">
      <g>
       <use xlink:href="#m268ff52629" x="254.399019" y="307.584" style="stroke: #000000; stroke-width: 0.8"/>
      </g>
     </g>
     <g id="text_4">
      <!-- 60 -->
      <g transform="translate(248.036519 322.182437) scale(0.1 -0.1)">
       <defs>
        <path id="DejaVuSans-36" d="M 2113 2584 
Q 1688 2584 1439 2293 
Q 1191 2003 1191 1497 
Q 1191 994 1439 701 
Q 1688 409 2113 409 
Q 2538 409 2786 701 
Q 3034 994 3034 1497 
Q 3034 2003 2786 2293 
Q 2538 2584 2113 2584 
z
M 3366 4563 
L 3366 3988 
Q 3128 4100 2886 4159 
Q 2644 4219 2406 4219 
Q 1781 4219 1451 3797 
Q 1122 3375 1075 2522 
Q 1259 2794 1537 2939 
Q 1816 3084 2150 3084 
Q 2853 3084 3261 2657 
Q 3669 2231 3669 1497 
Q 3669 778 3244 343 
Q 2819 -91 2113 -91 
Q 1303 -91 875 529 
Q 447 1150 447 2328 
Q 447 3434 972 4092 
Q 1497 4750 2381 4750 
Q 2619 4750 2861 4703 
Q 3103 4656 3366 4563 
z
" transform="scale(0.015625)"/>
       </defs>
       <use xlink:href="#DejaVuSans-36"/>
       <use xlink:href="#DejaVuSans-30" transform="translate(63.623047 0)"/>
      </g>
     </g>
    </g>
    <g id="xtick_5">
     <g id="line2d_5">
      <g>
       <use xlink:href="#m268ff52629" x="315.195751" y="307.584" style="stroke: #000000; stroke-width: 0.8"/>
      </g>
     </g>
     <g id="text_5">
      <!-- 80 -->
      <g transform="translate(308.833251 322.182437) scale(0.1 -0.1)">
       <defs>
        <path id="DejaVuSans-38" d="M 2034 2216 
Q 1584 2216 1326 1975 
Q 1069 1734 1069 1313 
Q 1069 891 1326 650 
Q 1584 409 2034 409 
Q 2484 409 2743 651 
Q 3003 894 3003 1313 
Q 3003 1734 2745 1975 
Q 2488 2216 2034 2216 
z
M 1403 2484 
Q 997 2584 770 2862 
Q 544 3141 544 3541 
Q 544 4100 942 4425 
Q 1341 4750 2034 4750 
Q 2731 4750 3128 4425 
Q 3525 4100 3525 3541 
Q 3525 3141 3298 2862 
Q 3072 2584 2669 2484 
Q 3125 2378 3379 2068 
Q 3634 1759 3634 1313 
Q 3634 634 3220 271 
Q 2806 -91 2034 -91 
Q 1263 -91 848 271 
Q 434 634 434 1313 
Q 434 1759 690 2068 
Q 947 2378 1403 2484 
z
M 1172 3481 
Q 1172 3119 1398 2916 
Q 1625 2713 2034 2713 
Q 2441 2713 2670 2916 
Q 2900 3119 2900 3481 
Q 2900 3844 2670 4047 
Q 2441 4250 2034 4250 
Q 1625 4250 1398 4047 
Q 1172 3844 1172 3481 
z
" transform="scale(0.015625)"/>
       </defs>
       <use xlink:href="#DejaVuSans-38"/>
       <use xlink:href="#DejaVuSans-30" transform="translate(63.623047 0)"/>
      </g>
     </g>
    </g>
    <g id="xtick_6">
     <g id="line2d_6">
      <g>
       <use xlink:href="#m268ff52629" x="375.992482" y="307.584" style="stroke: #000000; stroke-width: 0.8"/>
      </g>
     </g>
     <g id="text_6">
      <!-- 100 -->
      <g transform="translate(366.448732 322.182437) scale(0.1 -0.1)">
       <defs>
        <path id="DejaVuSans-31" d="M 794 531 
L 1825 531 
L 1825 4091 
L 703 3866 
L 703 4441 
L 1819 4666 
L 2450 4666 
L 2450 531 
L 3481 531 
L 3481 0 
L 794 0 
L 794 531 
z
" transform="scale(0.015625)"/>
       </defs>
       <use xlink:href="#DejaVuSans-31"/>
       <use xlink:href="#DejaVuSans-30" transform="translate(63.623047 0)"/>
       <use xlink:href="#DejaVuSans-30" transform="translate(127.246094 0)"/>
      </g>
     </g>
    </g>
    <g id="text_7">
     <!-- genotype -->
     <g transform="translate(212.510781 335.860562) scale(0.1 -0.1)">
      <defs>
       <path id="DejaVuSans-67" d="M 2906 1791 
Q 2906 2416 2648 2759 
Q 2391 3103 1925 3103 
Q 1463 3103 1205 2759 
Q 947 2416 947 1791 
Q 947 1169 1205 825 
Q 1463 481 1925 481 
Q 2391 481 2648 825 
Q 2906 1169 2906 1791 
z
M 3481 434 
Q 3481 -459 3084 -895 
Q 2688 -1331 1869 -1331 
Q 1566 -1331 1297 -1286 
Q 1028 -1241 775 -1147 
L 775 -588 
Q 1028 -725 1275 -790 
Q 1522 -856 1778 -856 
Q 2344 -856 2625 -561 
Q 2906 -266 2906 331 
L 2906 616 
Q 2728 306 2450 153 
Q 2172 0 1784 0 
Q 1141 0 747 490 
Q 353 981 353 1791 
Q 353 2603 747 3093 
Q 1141 3584 1784 3584 
Q 2172 3584 2450 3431 
Q 2728 3278 2906 2969 
L 2906 3500 
L 3481 3500 
L 3481 434 
z
" transform="scale(0.015625)"/>
       <path id="DejaVuSans-65" d="M 3597 1894 
L 3597 1613 
L 953 1613 
Q 991 1019 1311 708 
Q 1631 397 2203 397 
Q 2534 397 2845 478 
Q 3156 559 3463 722 
L 3463 178 
Q 3153 47 2828 -22 
Q 2503 -91 2169 -91 
Q 1331 -91 842 396 
Q 353 884 353 1716 
Q 353 2575 817 3079 
Q 1281 3584 2069 3584 
Q 2775 3584 3186 3129 
Q 3597 2675 3597 1894 
z
M 3022 2063 
Q 3016 2534 2758 2815 
Q 2500 3097 2075 3097 
Q 1594 3097 1305 2825 
Q 1016 2553 972 2059 
L 3022 2063 
z
" transform="scale(0.015625)"/>
       <path id="DejaVuSans-6e" d="M 3513 2113 
L 3513 0 
L 2938 0 
L 2938 2094 
Q 2938 2591 2744 2837 
Q 2550 3084 2163 3084 
Q 1697 3084 1428 2787 
Q 1159 2491 1159 1978 
L 1159 0 
L 581 0 
L 581 3500 
L 1159 3500 
L 1159 2956 
Q 1366 3272 1645 3428 
Q 1925 3584 2291 3584 
Q 2894 3584 3203 3211 
Q 3513 2838 3513 2113 
z
" transform="scale(0.015625)"/>
       <path id="DejaVuSans-6f" d="M 1959 3097 
Q 1497 3097 1228 2736 
Q 959 2375 959 1747 
Q 959 1119 1226 758 
Q 1494 397 1959 397 
Q 2419 397 2687 759 
Q 2956 1122 2956 1747 
Q 2956 2369 2687 2733 
Q 2419 3097 1959 3097 
z
M 1959 3584 
Q 2709 3584 3137 3096 
Q 3566 2609 3566 1747 
Q 3566 888 3137 398 
Q 2709 -91 1959 -91 
Q 1206 -91 779 398 
Q 353 888 353 1747 
Q 353 2609 779 3096 
Q 1206 3584 1959 3584 
z
" transform="scale(0.015625)"/>
       <path id="DejaVuSans-74" d="M 1172 4494 
L 1172 3500 
L 2356 3500 
L 2356 3053 
L 1172 3053 
L 1172 1153 
Q 1172 725 1289 603 
Q 1406 481 1766 481 
L 2356 481 
L 2356 0 
L 1766 0 
Q 1100 0 847 248 
Q 594 497 594 1153 
L 594 3053 
L 172 3053 
L 172 3500 
L 594 3500 
L 594 4494 
L 1172 4494 
z
" transform="scale(0.015625)"/>
       <path id="DejaVuSans-79" d="M 2059 -325 
Q 1816 -950 1584 -1140 
Q 1353 -1331 966 -1331 
L 506 -1331 
L 506 -850 
L 844 -850 
Q 1081 -850 1212 -737 
Q 1344 -625 1503 -206 
L 1606 56 
L 191 3500 
L 800 3500 
L 1894 763 
L 2988 3500 
L 3597 3500 
L 2059 -325 
z
" transform="scale(0.015625)"/>
       <path id="DejaVuSans-70" d="M 1159 525 
L 1159 -1331 
L 581 -1331 
L 581 3500 
L 1159 3500 
L 1159 2969 
Q 1341 3281 1617 3432 
Q 1894 3584 2278 3584 
Q 2916 3584 3314 3078 
Q 3713 2572 3713 1747 
Q 3713 922 3314 415 
Q 2916 -91 2278 -91 
Q 1894 -91 1617 61 
Q 1341 213 1159 525 
z
M 3116 1747 
Q 3116 2381 2855 2742 
Q 2594 3103 2138 3103 
Q 1681 3103 1420 2742 
Q 1159 2381 1159 1747 
Q 1159 1113 1420 752 
Q 1681 391 2138 391 
Q 2594 391 2855 752 
Q 3116 1113 3116 1747 
z
" transform="scale(0.015625)"/>
      </defs>
      <use xlink:href="#DejaVuSans-67"/>
      <use xlink:href="#DejaVuSans-65" transform="translate(63.476562 0)"/>
      <use xlink:href="#DejaVuSans-6e" transform="translate(125 0)"/>
      <use xlink:href="#DejaVuSans-6f" transform="translate(188.378906 0)"/>
      <use xlink:href="#DejaVuSans-74" transform="translate(249.560547 0)"/>
      <use xlink:href="#DejaVuSans-79" transform="translate(288.769531 0)"/>
      <use xlink:href="#DejaVuSans-70" transform="translate(347.949219 0)"/>
      <use xlink:href="#DejaVuSans-65" transform="translate(411.425781 0)"/>
     </g>
    </g>
   </g>
   <g id="matplotlib.axis_2">
    <g id="ytick_1">
     <g id="line2d_7">
      <defs>
       <path id="md81f316067" d="M 0 0 
L -3.5 0 
" style="stroke: #000000; stroke-width: 0.8"/>
      </defs>
      <g>
       <use xlink:href="#md81f316067" x="57.6" y="307.584" style="stroke: #000000; stroke-width: 0.8"/>
      </g>
     </g>
     <g id="text_8">
      <!-- 0 -->
      <g transform="translate(44.2375 311.383219) scale(0.1 -0.1)">
       <use xlink:href="#DejaVuSans-30"/>
      </g>
     </g>
    </g>
    <g id="ytick_2">
     <g id="line2d_8">
      <g>
       <use xlink:href="#md81f316067" x="57.6" y="251.264" style="stroke: #000000; stroke-width: 0.8"/>
      </g>
     </g>
     <g id="text_9">
      <!-- 2 -->
      <g transform="translate(44.2375 255.063219) scale(0.1 -0.1)">
       <use xlink:href="#DejaVuSans-32"/>
      </g>
     </g>
    </g>
    <g id="ytick_3">
     <g id="line2d_9">
      <g>
       <use xlink:href="#md81f316067" x="57.6" y="194.944" style="stroke: #000000; stroke-width: 0.8"/>
      </g>
     </g>
     <g id="text_10">
      <!-- 4 -->
      <g transform="translate(44.2375 198.743219) scale(0.1 -0.1)">
       <use xlink:href="#DejaVuSans-34"/>
      </g>
     </g>
    </g>
    <g id="ytick_4">
     <g id="line2d_10">
      <g>
       <use xlink:href="#md81f316067" x="57.6" y="138.624" style="stroke: #000000; stroke-width: 0.8"/>
      </g>
     </g>
     <g id="text_11">
      <!-- 6 -->
      <g transform="translate(44.2375 142.423219) scale(0.1 -0.1)">
       <use xlink:href="#DejaVuSans-36"/>
      </g>
     </g>
    </g>
    <g id="ytick_5">
     <g id="line2d_11">
      <g>
       <use xlink:href="#md81f316067" x="57.6" y="82.304" style="stroke: #000000; stroke-width: 0.8"/>
      </g>
     </g>
     <g id="text_12">
      <!-- 8 -->
      <g transform="translate(44.2375 86.103219) scale(0.1 -0.1)">
       <use xlink:href="#DejaVuSans-38"/>
      </g>
     </g>
    </g>
    <g id="text_13">
     <!-- abundance -->
     <g transform="translate(38.157812 202.336594) rotate(-90) scale(0.1 -0.1)">
      <defs>
       <path id="DejaVuSans-61" d="M 2194 1759 
Q 1497 1759 1228 1600 
Q 959 1441 959 1056 
Q 959 750 1161 570 
Q 1363 391 1709 391 
Q 2188 391 2477 730 
Q 2766 1069 2766 1631 
L 2766 1759 
L 2194 1759 
z
M 3341 1997 
L 3341 0 
L 2766 0 
L 2766 531 
Q 2569 213 2275 61 
Q 1981 -91 1556 -91 
Q 1019 -91 701 211 
Q 384 513 384 1019 
Q 384 1609 779 1909 
Q 1175 2209 1959 2209 
L 2766 2209 
L 2766 2266 
Q 2766 2663 2505 2880 
Q 2244 3097 1772 3097 
Q 1472 3097 1187 3025 
Q 903 2953 641 2809 
L 641 3341 
Q 956 3463 1253 3523 
Q 1550 3584 1831 3584 
Q 2591 3584 2966 3190 
Q 3341 2797 3341 1997 
z
" transform="scale(0.015625)"/>
       <path id="DejaVuSans-62" d="M 3116 1747 
Q 3116 2381 2855 2742 
Q 2594 3103 2138 3103 
Q 1681 3103 1420 2742 
Q 1159 2381 1159 1747 
Q 1159 1113 1420 752 
Q 1681 391 2138 391 
Q 2594 391 2855 752 
Q 3116 1113 3116 1747 
z
M 1159 2969 
Q 1341 3281 1617 3432 
Q 1894 3584 2278 3584 
Q 2916 3584 3314 3078 
Q 3713 2572 3713 1747 
Q 3713 922 3314 415 
Q 2916 -91 2278 -91 
Q 1894 -91 1617 61 
Q 1341 213 1159 525 
L 1159 0 
L 581 0 
L 581 4863 
L 1159 4863 
L 1159 2969 
z
" transform="scale(0.015625)"/>
       <path id="DejaVuSans-75" d="M 544 1381 
L 544 3500 
L 1119 3500 
L 1119 1403 
Q 1119 906 1312 657 
Q 1506 409 1894 409 
Q 2359 409 2629 706 
Q 2900 1003 2900 1516 
L 2900 3500 
L 3475 3500 
L 3475 0 
L 2900 0 
L 2900 538 
Q 2691 219 2414 64 
Q 2138 -91 1772 -91 
Q 1169 -91 856 284 
Q 544 659 544 1381 
z
M 1991 3584 
L 1991 3584 
z
" transform="scale(0.015625)"/>
       <path id="DejaVuSans-64" d="M 2906 2969 
L 2906 4863 
L 3481 4863 
L 3481 0 
L 2906 0 
L 2906 525 
Q 2725 213 2448 61 
Q 2172 -91 1784 -91 
Q 1150 -91 751 415 
Q 353 922 353 1747 
Q 353 2572 751 3078 
Q 1150 3584 1784 3584 
Q 2172 3584 2448 3432 
Q 2725 3281 2906 2969 
z
M 947 1747 
Q 947 1113 1208 752 
Q 1469 391 1925 391 
Q 2381 391 2643 752 
Q 2906 1113 2906 1747 
Q 2906 2381 2643 2742 
Q 2381 3103 1925 3103 
Q 1469 3103 1208 2742 
Q 947 2381 947 1747 
z
" transform="scale(0.015625)"/>
       <path id="DejaVuSans-63" d="M 3122 3366 
L 3122 2828 
Q 2878 2963 2633 3030 
Q 2388 3097 2138 3097 
Q 1578 3097 1268 2742 
Q 959 2388 959 1747 
Q 959 1106 1268 751 
Q 1578 397 2138 397 
Q 2388 397 2633 464 
Q 2878 531 3122 666 
L 3122 134 
Q 2881 22 2623 -34 
Q 2366 -91 2075 -91 
Q 1284 -91 818 406 
Q 353 903 353 1747 
Q 353 2603 823 3093 
Q 1294 3584 2113 3584 
Q 2378 3584 2631 3529 
Q 2884 3475 3122 3366 
z
" transform="scale(0.015625)"/>
      </defs>
      <use xlink:href="#DejaVuSans-61"/>
      <use xlink:href="#DejaVuSans-62" transform="translate(61.279297 0)"/>
      <use xlink:href="#DejaVuSans-75" transform="translate(124.755859 0)"/>
      <use xlink:href="#DejaVuSans-6e" transform="translate(188.134766 0)"/>
      <use xlink:href="#DejaVuSans-64" transform="translate(251.513672 0)"/>
      <use xlink:href="#DejaVuSans-61" transform="translate(314.990234 0)"/>
      <use xlink:href="#DejaVuSans-6e" transform="translate(376.269531 0)"/>
      <use xlink:href="#DejaVuSans-63" transform="translate(439.648438 0)"/>
      <use xlink:href="#DejaVuSans-65" transform="translate(494.628906 0)"/>
     </g>
    </g>
   </g>
   <g id="patch_110">
    <path d="M 57.6 307.584 
L 57.6 41.472 
" style="fill: none; stroke: #000000; stroke-width: 0.8; stroke-linejoin: miter; stroke-linecap: square"/>
   </g>
   <g id="patch_111">
    <path d="M 414.72 307.584 
L 414.72 41.472 
" style="fill: none; stroke: #000000; stroke-width: 0.8; stroke-linejoin: miter; stroke-linecap: square"/>
   </g>
   <g id="patch_112">
    <path d="M 57.6 307.584 
L 414.72 307.584 
" style="fill: none; stroke: #000000; stroke-width: 0.8; stroke-linejoin: miter; stroke-linecap: square"/>
   </g>
   <g id="patch_113">
    <path d="M 57.6 41.472 
L 414.72 41.472 
" style="fill: none; stroke: #000000; stroke-width: 0.8; stroke-linejoin: miter; stroke-linecap: square"/>
   </g>
  </g>
 </g>
 <defs>
  <clipPath id="p895c38081a">
   <rect x="57.6" y="41.472" width="357.12" height="266.112"/>
  </clipPath>
 </defs>
</svg>
