<?xml version="1.0" encoding="UTF-8" standalone="no"?> <svg width="196.85mm" height="113.947mm"  viewBox="0 0 558.511 323.914"  xmlns="http://www.w3.org/2000/svg" xmlns:xlink="http://www.w3.org/1999/xlink"  version="1.2" baseProfile="tiny"> <title>Generated with ETE http://etetoolkit.org</title> <desc>Generated with ETE http://etetoolkit.org</desc> <defs> </defs> <g fill="none" stroke="black" stroke-width="1" fill-rule="evenodd" stroke-linecap="square" stroke-linejoin="bevel" >      <g fill="none" stroke="none" transform="matrix(1,0,0,1,0,-141.298)" font-family="Sans Serif" font-size="9pt" font-weight="400" font-style="normal"  > <rect x="0" y="141.298" width="558.511" height="323.914"/> </g>      <g fill="none" stroke="none" transform="matrix(0,1,-1,0,557.511,1)" font-family="Sans Serif" font-size="9pt" font-weight="400" font-style="normal"  > <rect x="0" y="0" width="271.914" height="556.511"/> </g>                                                                                                                                                                        <g fill="#d3d3d3" fill-opacity="1" stroke="#d3d3d3" stroke-opacity="1" stroke-width="1" stroke-linecap="square" stroke-linejoin="bevel" transform="matrix(1,0,0,1,491.236,0.5)" font-family="Sans Serif" font-size="9pt" font-weight="400" font-style="normal"  > <circle cx="1" cy="1" r="1"/> </g>              <g fill="none" stroke="#000000" stroke-opacity="1" stroke-width="1" stroke-linecap="butt" stroke-linejoin="bevel" transform="matrix(0,1,-1,0,557.511,3)" font-family="Sans Serif" font-size="9pt" font-weight="400" font-style="normal"  > <polyline fill="none" vector-effect="non-scaling-stroke" points="87.2632,10 87.2632,119.549 " /> </g>            <g fill="none" stroke="#000000" stroke-opacity="1" stroke-width="1" stroke-linecap="butt" stroke-linejoin="bevel" transform="matrix(0,1,-1,0,557.511,3)" font-family="Sans Serif" font-size="9pt" font-weight="400" font-style="normal"  > <polyline fill="none" vector-effect="non-scaling-stroke" points="0,64.7747 85.2632,64.7747 " /> </g>          <g fill="#d3d3d3" fill-opacity="1" stroke="#d3d3d3" stroke-opacity="1" stroke-width="1" stroke-linecap="square" stroke-linejoin="bevel" transform="matrix(1,0,0,1,491.236,87.7632)" font-family="Sans Serif" font-size="9pt" font-weight="400" font-style="normal"  > <circle cx="1" cy="1" r="1"/> </g>                    <g fill="none" stroke="#000000" stroke-opacity="1" stroke-width="1" stroke-linecap="butt" stroke-linejoin="bevel" transform="matrix(0,1,-1,0,557.511,90.2632)" font-family="Sans Serif" font-size="9pt" font-weight="400" font-style="normal"  > <polyline fill="none" vector-effect="non-scaling-stroke" points="0,10 18.9474,10 " /> </g>          <g fill="#d3d3d3" fill-opacity="1" stroke="#d3d3d3" stroke-opacity="1" stroke-width="1" stroke-linecap="square" stroke-linejoin="bevel" transform="matrix(1,0,0,1,537.011,108.711)" font-family="Sans Serif" font-size="9pt" font-weight="400" font-style="normal"  > <circle cx="10" cy="10" r="10"/> </g>  <g fill="#d3d3d3" fill-opacity="1" stroke="#000000" stroke-opacity="1" stroke-width="1" stroke-linecap="square" stroke-linejoin="bevel" transform="matrix(1,0,0,1,537.011,108.711)" font-family="Verdana" font-size="12pt" font-weight="400" font-style="normal"  > <text fill="#000000" fill-opacity="1" stroke="none" xml:space="preserve" x="6" y="18" font-family="Verdana" font-size="12pt" font-weight="400" font-style="normal"   >1</text> </g>              <g fill="none" stroke="#000000" stroke-opacity="1" stroke-width="1" stroke-linecap="butt" stroke-linejoin="bevel" transform="matrix(0,1,-1,0,537.511,90.2632)" font-family="Sans Serif" font-size="9pt" font-weight="400" font-style="normal"  > <polyline fill="none" vector-effect="non-scaling-stroke" points="9.10526,36.2132 9.10526,162.886 " /> </g>            <g fill="none" stroke="#000000" stroke-opacity="1" stroke-width="1" stroke-linecap="butt" stroke-linejoin="bevel" transform="matrix(0,1,-1,0,537.511,90.2632)" font-family="Sans Serif" font-size="9pt" font-weight="400" font-style="normal"  > <polyline fill="none" vector-effect="non-scaling-stroke" points="0,99.5494 7.10526,99.5494 " /> </g>          <g fill="#d3d3d3" fill-opacity="1" stroke="#d3d3d3" stroke-opacity="1" stroke-width="1" stroke-linecap="square" stroke-linejoin="bevel" transform="matrix(1,0,0,1,436.461,96.8684)" font-family="Sans Serif" font-size="9pt" font-weight="400" font-style="normal"  > <circle cx="1" cy="1" r="1"/> </g>                          <g fill="none" stroke="#000000" stroke-opacity="1" stroke-width="1" stroke-linecap="butt" stroke-linejoin="bevel" transform="matrix(0,1,-1,0,537.511,99.3684)" font-family="Sans Serif" font-size="9pt" font-weight="400" font-style="normal"  > <polyline fill="none" vector-effect="non-scaling-stroke" points="0,36.2132 18.9474,36.2132 " /> </g>          <g fill="#d3d3d3" fill-opacity="1" stroke="#d3d3d3" stroke-opacity="1" stroke-width="1" stroke-linecap="square" stroke-linejoin="bevel" transform="matrix(1,0,0,1,466.156,117.816)" font-family="Sans Serif" font-size="9pt" font-weight="400" font-style="normal"  > <circle cx="34.641" cy="34.641" r="34.641"/> </g>  <g fill="#d3d3d3" fill-opacity="1" stroke="#000000" stroke-opacity="1" stroke-width="1" stroke-linecap="square" stroke-linejoin="bevel" transform="matrix(1,0,0,1,466.156,117.816)" font-family="Verdana" font-size="12pt" font-weight="400" font-style="normal"  > <text fill="#000000" fill-opacity="1" stroke="none" xml:space="preserve" x="27" y="43" font-family="Verdana" font-size="12pt" font-weight="400" font-style="normal"   >12</text> </g>              <g fill="none" stroke="#000000" stroke-opacity="1" stroke-width="1" stroke-linecap="butt" stroke-linejoin="bevel" transform="matrix(0,1,-1,0,537.511,187.598)" font-family="Sans Serif" font-size="9pt" font-weight="400" font-style="normal"  > <polyline fill="none" vector-effect="non-scaling-stroke" points="9.10526,14.1421 9.10526,58.2843 " /> </g>            <g fill="none" stroke="#000000" stroke-opacity="1" stroke-width="1" stroke-linecap="butt" stroke-linejoin="bevel" transform="matrix(0,1,-1,0,537.511,187.598)" font-family="Sans Serif" font-size="9pt" font-weight="400" font-style="normal"  > <polyline fill="none" vector-effect="non-scaling-stroke" points="0,36.2132 7.10526,36.2132 " /> </g>          <g fill="#d3d3d3" fill-opacity="1" stroke="#d3d3d3" stroke-opacity="1" stroke-width="1" stroke-linecap="square" stroke-linejoin="bevel" transform="matrix(1,0,0,1,499.797,194.203)" font-family="Sans Serif" font-size="9pt" font-weight="400" font-style="normal"  > <circle cx="1" cy="1" r="1"/> </g>                    <g fill="none" stroke="#000000" stroke-opacity="1" stroke-width="1" stroke-linecap="butt" stroke-linejoin="bevel" transform="matrix(0,1,-1,0,537.511,196.703)" font-family="Sans Serif" font-size="9pt" font-weight="400" font-style="normal"  > <polyline fill="none" vector-effect="non-scaling-stroke" points="0,14.1421 14.2105,14.1421 " /> </g>          <g fill="#d3d3d3" fill-opacity="1" stroke="#d3d3d3" stroke-opacity="1" stroke-width="1" stroke-linecap="square" stroke-linejoin="bevel" transform="matrix(1,0,0,1,508.726,210.414)" font-family="Sans Serif" font-size="9pt" font-weight="400" font-style="normal"  > <circle cx="14.1421" cy="14.1421" r="14.1421"/> </g>  <g fill="#d3d3d3" fill-opacity="1" stroke="#000000" stroke-opacity="1" stroke-width="1" stroke-linecap="square" stroke-linejoin="bevel" transform="matrix(1,0,0,1,508.726,210.414)" font-family="Verdana" font-size="12pt" font-weight="400" font-style="normal"  > <text fill="#000000" fill-opacity="1" stroke="none" xml:space="preserve" x="10" y="22" font-family="Verdana" font-size="12pt" font-weight="400" font-style="normal"   >2</text> </g>              <g fill="none" stroke="#000000" stroke-opacity="1" stroke-width="1" stroke-linecap="butt" stroke-linejoin="bevel" transform="matrix(0,1,-1,0,509.226,196.703)" font-family="Sans Serif" font-size="9pt" font-weight="400" font-style="normal"  > <polyline fill="none" vector-effect="non-scaling-stroke" points="4.36842,10 4.36842,50 " /> </g>            <g fill="none" stroke="#000000" stroke-opacity="1" stroke-width="1" stroke-linecap="butt" stroke-linejoin="bevel" transform="matrix(0,1,-1,0,509.226,196.703)" font-family="Sans Serif" font-size="9pt" font-weight="400" font-style="normal"  > <polyline fill="none" vector-effect="non-scaling-stroke" points="0,30 2.36842,30 " /> </g>          <g fill="#d3d3d3" fill-opacity="1" stroke="#d3d3d3" stroke-opacity="1" stroke-width="1" stroke-linecap="square" stroke-linejoin="bevel" transform="matrix(1,0,0,1,477.726,198.572)" font-family="Sans Serif" font-size="9pt" font-weight="400" font-style="normal"  > <circle cx="1" cy="1" r="1"/> </g>                    <g fill="none" stroke="#000000" stroke-opacity="1" stroke-width="1" stroke-linecap="butt" stroke-linejoin="bevel" transform="matrix(0,1,-1,0,509.226,201.072)" font-family="Sans Serif" font-size="9pt" font-weight="400" font-style="normal"  > <polyline fill="none" vector-effect="non-scaling-stroke" points="0,10 2.36842,10 " /> </g>          <g fill="#d3d3d3" fill-opacity="1" stroke="#d3d3d3" stroke-opacity="1" stroke-width="1" stroke-linecap="square" stroke-linejoin="bevel" transform="matrix(1,0,0,1,488.726,202.94)" font-family="Sans Serif" font-size="9pt" font-weight="400" font-style="normal"  > <circle cx="10" cy="10" r="10"/> </g>  <g fill="#d3d3d3" fill-opacity="1" stroke="#000000" stroke-opacity="1" stroke-width="1" stroke-linecap="square" stroke-linejoin="bevel" transform="matrix(1,0,0,1,488.726,202.94)" font-family="Verdana" font-size="12pt" font-weight="400" font-style="normal"  > <text fill="#000000" fill-opacity="1" stroke="none" xml:space="preserve" x="6" y="18" font-family="Verdana" font-size="12pt" font-weight="400" font-style="normal"   >1</text> </g>                    <g fill="none" stroke="#000000" stroke-opacity="1" stroke-width="1" stroke-linecap="butt" stroke-linejoin="bevel" transform="matrix(0,1,-1,0,489.226,201.072)" font-family="Sans Serif" font-size="9pt" font-weight="400" font-style="normal"  > <polyline fill="none" vector-effect="non-scaling-stroke" points="0,30 11.8421,30 " /> </g>          <g fill="#d3d3d3" fill-opacity="1" stroke="#d3d3d3" stroke-opacity="1" stroke-width="1" stroke-linecap="square" stroke-linejoin="bevel" transform="matrix(1,0,0,1,428.726,212.414)" font-family="Sans Serif" font-size="9pt" font-weight="400" font-style="normal"  > <circle cx="30" cy="30" r="30"/> </g>  <g fill="#d3d3d3" fill-opacity="1" stroke="#000000" stroke-opacity="1" stroke-width="1" stroke-linecap="square" stroke-linejoin="bevel" transform="matrix(1,0,0,1,428.726,212.414)" font-family="Verdana" font-size="12pt" font-weight="400" font-style="normal"  > <text fill="#000000" fill-opacity="1" stroke="none" xml:space="preserve" x="26" y="38" font-family="Verdana" font-size="12pt" font-weight="400" font-style="normal"   >9</text> </g>              <g fill="none" stroke="#000000" stroke-opacity="1" stroke-width="1" stroke-linecap="butt" stroke-linejoin="bevel" transform="matrix(0,1,-1,0,429.226,99.3684)" font-family="Sans Serif" font-size="9pt" font-weight="400" font-style="normal"  > <polyline fill="none" vector-effect="non-scaling-stroke" points="6.73684,14.1421 6.73684,95.0607 " /> </g>            <g fill="none" stroke="#000000" stroke-opacity="1" stroke-width="1" stroke-linecap="butt" stroke-linejoin="bevel" transform="matrix(0,1,-1,0,429.226,99.3684)" font-family="Sans Serif" font-size="9pt" font-weight="400" font-style="normal"  > <polyline fill="none" vector-effect="non-scaling-stroke" points="0,54.6014 4.73684,54.6014 " /> </g>          <g fill="#d3d3d3" fill-opacity="1" stroke="#d3d3d3" stroke-opacity="1" stroke-width="1" stroke-linecap="square" stroke-linejoin="bevel" transform="matrix(1,0,0,1,373.125,103.605)" font-family="Sans Serif" font-size="9pt" font-weight="400" font-style="normal"  > <circle cx="1" cy="1" r="1"/> </g>                    <g fill="none" stroke="#000000" stroke-opacity="1" stroke-width="1" stroke-linecap="butt" stroke-linejoin="bevel" transform="matrix(0,1,-1,0,429.226,106.105)" font-family="Sans Serif" font-size="9pt" font-weight="400" font-style="normal"  > <polyline fill="none" vector-effect="non-scaling-stroke" points="0,14.1421 26.0526,14.1421 " /> </g>          <g fill="#d3d3d3" fill-opacity="1" stroke="#d3d3d3" stroke-opacity="1" stroke-width="1" stroke-linecap="square" stroke-linejoin="bevel" transform="matrix(1,0,0,1,400.442,131.658)" font-family="Sans Serif" font-size="9pt" font-weight="400" font-style="normal"  > <circle cx="14.1421" cy="14.1421" r="14.1421"/> </g>  <g fill="#d3d3d3" fill-opacity="1" stroke="#000000" stroke-opacity="1" stroke-width="1" stroke-linecap="square" stroke-linejoin="bevel" transform="matrix(1,0,0,1,400.442,131.658)" font-family="Verdana" font-size="12pt" font-weight="400" font-style="normal"  > <text fill="#000000" fill-opacity="1" stroke="none" xml:space="preserve" x="10" y="22" font-family="Verdana" font-size="12pt" font-weight="400" font-style="normal"   >2</text> </g>              <g fill="none" stroke="#000000" stroke-opacity="1" stroke-width="1" stroke-linecap="butt" stroke-linejoin="bevel" transform="matrix(0,1,-1,0,400.942,106.105)" font-family="Sans Serif" font-size="9pt" font-weight="400" font-style="normal"  > <polyline fill="none" vector-effect="non-scaling-stroke" points="6.73684,10 6.73684,123.553 " /> </g>            <g fill="none" stroke="#000000" stroke-opacity="1" stroke-width="1" stroke-linecap="butt" stroke-linejoin="bevel" transform="matrix(0,1,-1,0,400.942,106.105)" font-family="Sans Serif" font-size="9pt" font-weight="400" font-style="normal"  > <polyline fill="none" vector-effect="non-scaling-stroke" points="0,66.7764 4.73684,66.7764 " /> </g>          <g fill="#d3d3d3" fill-opacity="1" stroke="#d3d3d3" stroke-opacity="1" stroke-width="1" stroke-linecap="square" stroke-linejoin="bevel" transform="matrix(1,0,0,1,332.666,110.342)" font-family="Sans Serif" font-size="9pt" font-weight="400" font-style="normal"  > <circle cx="1" cy="1" r="1"/> </g>                    <g fill="none" stroke="#000000" stroke-opacity="1" stroke-width="1" stroke-linecap="butt" stroke-linejoin="bevel" transform="matrix(0,1,-1,0,400.942,112.842)" font-family="Sans Serif" font-size="9pt" font-weight="400" font-style="normal"  > <polyline fill="none" vector-effect="non-scaling-stroke" points="0,10 18.9474,10 " /> </g>          <g fill="#d3d3d3" fill-opacity="1" stroke="#d3d3d3" stroke-opacity="1" stroke-width="1" stroke-linecap="square" stroke-linejoin="bevel" transform="matrix(1,0,0,1,380.442,131.289)" font-family="Sans Serif" font-size="9pt" font-weight="400" font-style="normal"  > <circle cx="10" cy="10" r="10"/> </g>  <g fill="#d3d3d3" fill-opacity="1" stroke="#000000" stroke-opacity="1" stroke-width="1" stroke-linecap="square" stroke-linejoin="bevel" transform="matrix(1,0,0,1,380.442,131.289)" font-family="Verdana" font-size="12pt" font-weight="400" font-style="normal"  > <text fill="#000000" fill-opacity="1" stroke="none" xml:space="preserve" x="6" y="18" font-family="Verdana" font-size="12pt" font-weight="400" font-style="normal"   >1</text> </g>              <g fill="none" stroke="#000000" stroke-opacity="1" stroke-width="1" stroke-linecap="butt" stroke-linejoin="bevel" transform="matrix(0,1,-1,0,380.942,112.842)" font-family="Sans Serif" font-size="9pt" font-weight="400" font-style="normal"  > <polyline fill="none" vector-effect="non-scaling-stroke" points="4.36842,22.0711 4.36842,185.035 " /> </g>            <g fill="none" stroke="#000000" stroke-opacity="1" stroke-width="1" stroke-linecap="butt" stroke-linejoin="bevel" transform="matrix(0,1,-1,0,380.942,112.842)" font-family="Sans Serif" font-size="9pt" font-weight="400" font-style="normal"  > <polyline fill="none" vector-effect="non-scaling-stroke" points="0,103.553 2.36842,103.553 " /> </g>          <g fill="#d3d3d3" fill-opacity="1" stroke="#d3d3d3" stroke-opacity="1" stroke-width="1" stroke-linecap="square" stroke-linejoin="bevel" transform="matrix(1,0,0,1,275.889,114.711)" font-family="Sans Serif" font-size="9pt" font-weight="400" font-style="normal"  > <circle cx="1" cy="1" r="1"/> </g>              <g fill="none" stroke="#000000" stroke-opacity="1" stroke-width="1" stroke-linecap="butt" stroke-linejoin="bevel" transform="matrix(0,1,-1,0,380.942,117.211)" font-family="Sans Serif" font-size="9pt" font-weight="400" font-style="normal"  > <polyline fill="none" vector-effect="non-scaling-stroke" points="6.73684,10 6.73684,34.1421 " /> </g>            <g fill="none" stroke="#000000" stroke-opacity="1" stroke-width="1" stroke-linecap="butt" stroke-linejoin="bevel" transform="matrix(0,1,-1,0,380.942,117.211)" font-family="Sans Serif" font-size="9pt" font-weight="400" font-style="normal"  > <polyline fill="none" vector-effect="non-scaling-stroke" points="0,22.0711 4.73684,22.0711 " /> </g>          <g fill="#d3d3d3" fill-opacity="1" stroke="#d3d3d3" stroke-opacity="1" stroke-width="1" stroke-linecap="square" stroke-linejoin="bevel" transform="matrix(1,0,0,1,357.371,121.447)" font-family="Sans Serif" font-size="9pt" font-weight="400" font-style="normal"  > <circle cx="1" cy="1" r="1"/> </g>                    <g fill="none" stroke="#000000" stroke-opacity="1" stroke-width="1" stroke-linecap="butt" stroke-linejoin="bevel" transform="matrix(0,1,-1,0,380.942,123.947)" font-family="Sans Serif" font-size="9pt" font-weight="400" font-style="normal"  > <polyline fill="none" vector-effect="non-scaling-stroke" points="0,10 11.8421,10 " /> </g>          <g fill="#d3d3d3" fill-opacity="1" stroke="#d3d3d3" stroke-opacity="1" stroke-width="1" stroke-linecap="square" stroke-linejoin="bevel" transform="matrix(1,0,0,1,360.442,135.289)" font-family="Sans Serif" font-size="9pt" font-weight="400" font-style="normal"  > <circle cx="10" cy="10" r="10"/> </g>  <g fill="#d3d3d3" fill-opacity="1" stroke="#000000" stroke-opacity="1" stroke-width="1" stroke-linecap="square" stroke-linejoin="bevel" transform="matrix(1,0,0,1,360.442,135.289)" font-family="Verdana" font-size="12pt" font-weight="400" font-style="normal"  > <text fill="#000000" fill-opacity="1" stroke="none" xml:space="preserve" x="6" y="18" font-family="Verdana" font-size="12pt" font-weight="400" font-style="normal"   >1</text> </g>                    <g fill="none" stroke="#000000" stroke-opacity="1" stroke-width="1" stroke-linecap="butt" stroke-linejoin="bevel" transform="matrix(0,1,-1,0,360.942,123.947)" font-family="Sans Serif" font-size="9pt" font-weight="400" font-style="normal"  > <polyline fill="none" vector-effect="non-scaling-stroke" points="0,14.1421 26.0526,14.1421 " /> </g>          <g fill="#d3d3d3" fill-opacity="1" stroke="#d3d3d3" stroke-opacity="1" stroke-width="1" stroke-linecap="square" stroke-linejoin="bevel" transform="matrix(1,0,0,1,332.158,149.5)" font-family="Sans Serif" font-size="9pt" font-weight="400" font-style="normal"  > <circle cx="14.1421" cy="14.1421" r="14.1421"/> </g>  <g fill="#d3d3d3" fill-opacity="1" stroke="#000000" stroke-opacity="1" stroke-width="1" stroke-linecap="square" stroke-linejoin="bevel" transform="matrix(1,0,0,1,332.158,149.5)" font-family="Verdana" font-size="12pt" font-weight="400" font-style="normal"  > <text fill="#000000" fill-opacity="1" stroke="none" xml:space="preserve" x="10" y="22" font-family="Verdana" font-size="12pt" font-weight="400" font-style="normal"   >2</text> </g>              <g fill="none" stroke="#000000" stroke-opacity="1" stroke-width="1" stroke-linecap="butt" stroke-linejoin="bevel" transform="matrix(0,1,-1,0,332.658,117.211)" font-family="Sans Serif" font-size="9pt" font-weight="400" font-style="normal"  > <polyline fill="none" vector-effect="non-scaling-stroke" points="6.73684,48.9054 6.73684,224.595 " /> </g>            <g fill="none" stroke="#000000" stroke-opacity="1" stroke-width="1" stroke-linecap="butt" stroke-linejoin="bevel" transform="matrix(0,1,-1,0,332.658,117.211)" font-family="Sans Serif" font-size="9pt" font-weight="400" font-style="normal"  > <polyline fill="none" vector-effect="non-scaling-stroke" points="0,136.75 4.73684,136.75 " /> </g>          <g fill="#d3d3d3" fill-opacity="1" stroke="#d3d3d3" stroke-opacity="1" stroke-width="1" stroke-linecap="square" stroke-linejoin="bevel" transform="matrix(1,0,0,1,194.407,121.447)" font-family="Sans Serif" font-size="9pt" font-weight="400" font-style="normal"  > <circle cx="1" cy="1" r="1"/> </g>              <g fill="none" stroke="#000000" stroke-opacity="1" stroke-width="1" stroke-linecap="butt" stroke-linejoin="bevel" transform="matrix(0,1,-1,0,332.658,123.947)" font-family="Sans Serif" font-size="9pt" font-weight="400" font-style="normal"  > <polyline fill="none" vector-effect="non-scaling-stroke" points="11.4737,20 11.4737,77.8109 " /> </g>            <g fill="none" stroke="#000000" stroke-opacity="1" stroke-width="1" stroke-linecap="butt" stroke-linejoin="bevel" transform="matrix(0,1,-1,0,332.658,123.947)" font-family="Sans Serif" font-size="9pt" font-weight="400" font-style="normal"  > <polyline fill="none" vector-effect="non-scaling-stroke" points="0,48.9054 9.47368,48.9054 " /> </g>          <g fill="#d3d3d3" fill-opacity="1" stroke="#d3d3d3" stroke-opacity="1" stroke-width="1" stroke-linecap="square" stroke-linejoin="bevel" transform="matrix(1,0,0,1,282.252,132.921)" font-family="Sans Serif" font-size="9pt" font-weight="400" font-style="normal"  > <circle cx="1" cy="1" r="1"/> </g>                          <g fill="none" stroke="#000000" stroke-opacity="1" stroke-width="1" stroke-linecap="butt" stroke-linejoin="bevel" transform="matrix(0,1,-1,0,332.658,135.421)" font-family="Sans Serif" font-size="9pt" font-weight="400" font-style="normal"  > <polyline fill="none" vector-effect="non-scaling-stroke" points="0,20 9.47368,20 " /> </g>          <g fill="#d3d3d3" fill-opacity="1" stroke="#d3d3d3" stroke-opacity="1" stroke-width="1" stroke-linecap="square" stroke-linejoin="bevel" transform="matrix(1,0,0,1,298.016,144.395)" font-family="Sans Serif" font-size="9pt" font-weight="400" font-style="normal"  > <circle cx="14.1421" cy="14.1421" r="14.1421"/> </g>  <g fill="#d3d3d3" fill-opacity="1" stroke="#000000" stroke-opacity="1" stroke-width="1" stroke-linecap="square" stroke-linejoin="bevel" transform="matrix(1,0,0,1,298.016,144.395)" font-family="Verdana" font-size="12pt" font-weight="400" font-style="normal"  > <text fill="#000000" fill-opacity="1" stroke="none" xml:space="preserve" x="10" y="22" font-family="Verdana" font-size="12pt" font-weight="400" font-style="normal"   >2</text> </g>              <g fill="none" stroke="#000000" stroke-opacity="1" stroke-width="1" stroke-linecap="butt" stroke-linejoin="bevel" transform="matrix(0,1,-1,0,332.658,173.179)" font-family="Sans Serif" font-size="9pt" font-weight="400" font-style="normal"  > <polyline fill="none" vector-effect="non-scaling-stroke" points="6.73684,10 6.73684,30 " /> </g>            <g fill="none" stroke="#000000" stroke-opacity="1" stroke-width="1" stroke-linecap="butt" stroke-linejoin="bevel" transform="matrix(0,1,-1,0,332.658,173.179)" font-family="Sans Serif" font-size="9pt" font-weight="400" font-style="normal"  > <polyline fill="none" vector-effect="non-scaling-stroke" points="0,20 4.73684,20 " /> </g>          <g fill="#d3d3d3" fill-opacity="1" stroke="#d3d3d3" stroke-opacity="1" stroke-width="1" stroke-linecap="square" stroke-linejoin="bevel" transform="matrix(1,0,0,1,311.158,177.416)" font-family="Sans Serif" font-size="9pt" font-weight="400" font-style="normal"  > <circle cx="1" cy="1" r="1"/> </g>                    <g fill="none" stroke="#000000" stroke-opacity="1" stroke-width="1" stroke-linecap="butt" stroke-linejoin="bevel" transform="matrix(0,1,-1,0,332.658,179.916)" font-family="Sans Serif" font-size="9pt" font-weight="400" font-style="normal"  > <polyline fill="none" vector-effect="non-scaling-stroke" points="0,10 47.3684,10 " /> </g>          <g fill="#d3d3d3" fill-opacity="1" stroke="#d3d3d3" stroke-opacity="1" stroke-width="1" stroke-linecap="square" stroke-linejoin="bevel" transform="matrix(1,0,0,1,312.158,226.784)" font-family="Sans Serif" font-size="9pt" font-weight="400" font-style="normal"  > <circle cx="10" cy="10" r="10"/> </g>  <g fill="#d3d3d3" fill-opacity="1" stroke="#000000" stroke-opacity="1" stroke-width="1" stroke-linecap="square" stroke-linejoin="bevel" transform="matrix(1,0,0,1,312.158,226.784)" font-family="Verdana" font-size="12pt" font-weight="400" font-style="normal"  > <text fill="#000000" fill-opacity="1" stroke="none" xml:space="preserve" x="6" y="18" font-family="Verdana" font-size="12pt" font-weight="400" font-style="normal"   >1</text> </g>                    <g fill="none" stroke="#000000" stroke-opacity="1" stroke-width="1" stroke-linecap="butt" stroke-linejoin="bevel" transform="matrix(0,1,-1,0,312.658,179.916)" font-family="Sans Serif" font-size="9pt" font-weight="400" font-style="normal"  > <polyline fill="none" vector-effect="non-scaling-stroke" points="0,10 14.2105,10 " /> </g>          <g fill="#d3d3d3" fill-opacity="1" stroke="#d3d3d3" stroke-opacity="1" stroke-width="1" stroke-linecap="square" stroke-linejoin="bevel" transform="matrix(1,0,0,1,292.158,193.626)" font-family="Sans Serif" font-size="9pt" font-weight="400" font-style="normal"  > <circle cx="10" cy="10" r="10"/> </g>  <g fill="#d3d3d3" fill-opacity="1" stroke="#000000" stroke-opacity="1" stroke-width="1" stroke-linecap="square" stroke-linejoin="bevel" transform="matrix(1,0,0,1,292.158,193.626)" font-family="Verdana" font-size="12pt" font-weight="400" font-style="normal"  > <text fill="#000000" fill-opacity="1" stroke="none" xml:space="preserve" x="6" y="18" font-family="Verdana" font-size="12pt" font-weight="400" font-style="normal"   >1</text> </g>              <g fill="none" stroke="#000000" stroke-opacity="1" stroke-width="1" stroke-linecap="butt" stroke-linejoin="bevel" transform="matrix(0,1,-1,0,292.658,135.421)" font-family="Sans Serif" font-size="9pt" font-weight="400" font-style="normal"  > <polyline fill="none" vector-effect="non-scaling-stroke" points="6.73684,17.3205 6.73684,58.3013 " /> </g>            <g fill="none" stroke="#000000" stroke-opacity="1" stroke-width="1" stroke-linecap="butt" stroke-linejoin="bevel" transform="matrix(0,1,-1,0,292.658,135.421)" font-family="Sans Serif" font-size="9pt" font-weight="400" font-style="normal"  > <polyline fill="none" vector-effect="non-scaling-stroke" points="0,37.8109 4.73684,37.8109 " /> </g>          <g fill="#d3d3d3" fill-opacity="1" stroke="#d3d3d3" stroke-opacity="1" stroke-width="1" stroke-linecap="square" stroke-linejoin="bevel" transform="matrix(1,0,0,1,253.347,139.658)" font-family="Sans Serif" font-size="9pt" font-weight="400" font-style="normal"  > <circle cx="1" cy="1" r="1"/> </g>                    <g fill="none" stroke="#000000" stroke-opacity="1" stroke-width="1" stroke-linecap="butt" stroke-linejoin="bevel" transform="matrix(0,1,-1,0,292.658,142.158)" font-family="Sans Serif" font-size="9pt" font-weight="400" font-style="normal"  > <polyline fill="none" vector-effect="non-scaling-stroke" points="0,17.3205 26.0526,17.3205 " /> </g>          <g fill="#d3d3d3" fill-opacity="1" stroke="#d3d3d3" stroke-opacity="1" stroke-width="1" stroke-linecap="square" stroke-linejoin="bevel" transform="matrix(1,0,0,1,257.517,167.711)" font-family="Sans Serif" font-size="9pt" font-weight="400" font-style="normal"  > <circle cx="17.3205" cy="17.3205" r="17.3205"/> </g>  <g fill="#d3d3d3" fill-opacity="1" stroke="#000000" stroke-opacity="1" stroke-width="1" stroke-linecap="square" stroke-linejoin="bevel" transform="matrix(1,0,0,1,257.517,167.711)" font-family="Verdana" font-size="12pt" font-weight="400" font-style="normal"  > <text fill="#000000" fill-opacity="1" stroke="none" xml:space="preserve" x="13" y="25" font-family="Verdana" font-size="12pt" font-weight="400" font-style="normal"   >3</text> </g>              <g fill="none" stroke="#000000" stroke-opacity="1" stroke-width="1" stroke-linecap="butt" stroke-linejoin="bevel" transform="matrix(0,1,-1,0,258.017,142.158)" font-family="Sans Serif" font-size="9pt" font-weight="400" font-style="normal"  > <polyline fill="none" vector-effect="non-scaling-stroke" points="9.10526,10 9.10526,37.3205 " /> </g>            <g fill="none" stroke="#000000" stroke-opacity="1" stroke-width="1" stroke-linecap="butt" stroke-linejoin="bevel" transform="matrix(0,1,-1,0,258.017,142.158)" font-family="Sans Serif" font-size="9pt" font-weight="400" font-style="normal"  > <polyline fill="none" vector-effect="non-scaling-stroke" points="0,23.6603 7.10526,23.6603 " /> </g>          <g fill="#d3d3d3" fill-opacity="1" stroke="#d3d3d3" stroke-opacity="1" stroke-width="1" stroke-linecap="square" stroke-linejoin="bevel" transform="matrix(1,0,0,1,232.856,148.763)" font-family="Sans Serif" font-size="9pt" font-weight="400" font-style="normal"  > <circle cx="1" cy="1" r="1"/> </g>                    <g fill="none" stroke="#000000" stroke-opacity="1" stroke-width="1" stroke-linecap="butt" stroke-linejoin="bevel" transform="matrix(0,1,-1,0,258.017,151.263)" font-family="Sans Serif" font-size="9pt" font-weight="400" font-style="normal"  > <polyline fill="none" vector-effect="non-scaling-stroke" points="0,10 21.3158,10 " /> </g>          <g fill="#d3d3d3" fill-opacity="1" stroke="#d3d3d3" stroke-opacity="1" stroke-width="1" stroke-linecap="square" stroke-linejoin="bevel" transform="matrix(1,0,0,1,237.517,172.079)" font-family="Sans Serif" font-size="9pt" font-weight="400" font-style="normal"  > <circle cx="10" cy="10" r="10"/> </g>  <g fill="#d3d3d3" fill-opacity="1" stroke="#000000" stroke-opacity="1" stroke-width="1" stroke-linecap="square" stroke-linejoin="bevel" transform="matrix(1,0,0,1,237.517,172.079)" font-family="Verdana" font-size="12pt" font-weight="400" font-style="normal"  > <text fill="#000000" fill-opacity="1" stroke="none" xml:space="preserve" x="6" y="18" font-family="Verdana" font-size="12pt" font-weight="400" font-style="normal"   >1</text> </g>                    <g fill="none" stroke="#000000" stroke-opacity="1" stroke-width="1" stroke-linecap="butt" stroke-linejoin="bevel" transform="matrix(0,1,-1,0,238.017,151.263)" font-family="Sans Serif" font-size="9pt" font-weight="400" font-style="normal"  > <polyline fill="none" vector-effect="non-scaling-stroke" points="0,17.3205 23.6842,17.3205 " /> </g>          <g fill="#d3d3d3" fill-opacity="1" stroke="#d3d3d3" stroke-opacity="1" stroke-width="1" stroke-linecap="square" stroke-linejoin="bevel" transform="matrix(1,0,0,1,202.876,174.447)" font-family="Sans Serif" font-size="9pt" font-weight="400" font-style="normal"  > <circle cx="17.3205" cy="17.3205" r="17.3205"/> </g>  <g fill="#d3d3d3" fill-opacity="1" stroke="#000000" stroke-opacity="1" stroke-width="1" stroke-linecap="square" stroke-linejoin="bevel" transform="matrix(1,0,0,1,202.876,174.447)" font-family="Verdana" font-size="12pt" font-weight="400" font-style="normal"  > <text fill="#000000" fill-opacity="1" stroke="none" xml:space="preserve" x="13" y="25" font-family="Verdana" font-size="12pt" font-weight="400" font-style="normal"   >3</text> </g>              <g fill="none" stroke="#000000" stroke-opacity="1" stroke-width="1" stroke-linecap="butt" stroke-linejoin="bevel" transform="matrix(0,1,-1,0,203.376,123.947)" font-family="Sans Serif" font-size="9pt" font-weight="400" font-style="normal"  > <polyline fill="none" vector-effect="non-scaling-stroke" points="6.73684,39.241 6.73684,151.385 " /> </g>            <g fill="none" stroke="#000000" stroke-opacity="1" stroke-width="1" stroke-linecap="butt" stroke-linejoin="bevel" transform="matrix(0,1,-1,0,203.376,123.947)" font-family="Sans Serif" font-size="9pt" font-weight="400" font-style="normal"  > <polyline fill="none" vector-effect="non-scaling-stroke" points="0,95.3132 4.73684,95.3132 " /> </g>          <g fill="#d3d3d3" fill-opacity="1" stroke="#d3d3d3" stroke-opacity="1" stroke-width="1" stroke-linecap="square" stroke-linejoin="bevel" transform="matrix(1,0,0,1,106.562,128.184)" font-family="Sans Serif" font-size="9pt" font-weight="400" font-style="normal"  > <circle cx="1" cy="1" r="1"/> </g>              <g fill="none" stroke="#000000" stroke-opacity="1" stroke-width="1" stroke-linecap="butt" stroke-linejoin="bevel" transform="matrix(0,1,-1,0,203.376,130.684)" font-family="Sans Serif" font-size="9pt" font-weight="400" font-style="normal"  > <polyline fill="none" vector-effect="non-scaling-stroke" points="6.73684,14.1421 6.73684,64.3398 " /> </g>            <g fill="none" stroke="#000000" stroke-opacity="1" stroke-width="1" stroke-linecap="butt" stroke-linejoin="bevel" transform="matrix(0,1,-1,0,203.376,130.684)" font-family="Sans Serif" font-size="9pt" font-weight="400" font-style="normal"  > <polyline fill="none" vector-effect="non-scaling-stroke" points="0,39.241 4.73684,39.241 " /> </g>          <g fill="#d3d3d3" fill-opacity="1" stroke="#d3d3d3" stroke-opacity="1" stroke-width="1" stroke-linecap="square" stroke-linejoin="bevel" transform="matrix(1,0,0,1,162.635,134.921)" font-family="Sans Serif" font-size="9pt" font-weight="400" font-style="normal"  > <circle cx="1" cy="1" r="1"/> </g>                    <g fill="none" stroke="#000000" stroke-opacity="1" stroke-width="1" stroke-linecap="butt" stroke-linejoin="bevel" transform="matrix(0,1,-1,0,203.376,137.421)" font-family="Sans Serif" font-size="9pt" font-weight="400" font-style="normal"  > <polyline fill="none" vector-effect="non-scaling-stroke" points="0,14.1421 16.5789,14.1421 " /> </g>          <g fill="#d3d3d3" fill-opacity="1" stroke="#d3d3d3" stroke-opacity="1" stroke-width="1" stroke-linecap="square" stroke-linejoin="bevel" transform="matrix(1,0,0,1,174.591,153.5)" font-family="Sans Serif" font-size="9pt" font-weight="400" font-style="normal"  > <circle cx="14.1421" cy="14.1421" r="14.1421"/> </g>  <g fill="#d3d3d3" fill-opacity="1" stroke="#000000" stroke-opacity="1" stroke-width="1" stroke-linecap="square" stroke-linejoin="bevel" transform="matrix(1,0,0,1,174.591,153.5)" font-family="Verdana" font-size="12pt" font-weight="400" font-style="normal"  > <text fill="#000000" fill-opacity="1" stroke="none" xml:space="preserve" x="10" y="22" font-family="Verdana" font-size="12pt" font-weight="400" font-style="normal"   >2</text> </g>                          <g fill="none" stroke="#000000" stroke-opacity="1" stroke-width="1" stroke-linecap="butt" stroke-linejoin="bevel" transform="matrix(0,1,-1,0,175.091,137.421)" font-family="Sans Serif" font-size="9pt" font-weight="400" font-style="normal"  > <polyline fill="none" vector-effect="non-scaling-stroke" points="0,36.0555 4.73684,36.0555 " /> </g>          <g fill="#d3d3d3" fill-opacity="1" stroke="#d3d3d3" stroke-opacity="1" stroke-width="1" stroke-linecap="square" stroke-linejoin="bevel" transform="matrix(1,0,0,1,118.536,141.658)" font-family="Sans Serif" font-size="9pt" font-weight="400" font-style="normal"  > <circle cx="20" cy="20" r="20"/> </g>  <g fill="#d3d3d3" fill-opacity="1" stroke="#000000" stroke-opacity="1" stroke-width="1" stroke-linecap="square" stroke-linejoin="bevel" transform="matrix(1,0,0,1,118.536,141.658)" font-family="Verdana" font-size="12pt" font-weight="400" font-style="normal"  > <text fill="#000000" fill-opacity="1" stroke="none" xml:space="preserve" x="16" y="28" font-family="Verdana" font-size="12pt" font-weight="400" font-style="normal"   >4</text> </g>                    <g fill="none" stroke="#000000" stroke-opacity="1" stroke-width="1" stroke-linecap="butt" stroke-linejoin="bevel" transform="matrix(0,1,-1,0,175.091,182.158)" font-family="Sans Serif" font-size="9pt" font-weight="400" font-style="normal"  > <polyline fill="none" vector-effect="non-scaling-stroke" points="0,36.0555 11.8421,36.0555 " /> </g>          <g fill="#d3d3d3" fill-opacity="1" stroke="#d3d3d3" stroke-opacity="1" stroke-width="1" stroke-linecap="square" stroke-linejoin="bevel" transform="matrix(1,0,0,1,102.48,193.5)" font-family="Sans Serif" font-size="9pt" font-weight="400" font-style="normal"  > <circle cx="36.0555" cy="36.0555" r="36.0555"/> </g>  <g fill="#d3d3d3" fill-opacity="1" stroke="#000000" stroke-opacity="1" stroke-width="1" stroke-linecap="square" stroke-linejoin="bevel" transform="matrix(1,0,0,1,102.48,193.5)" font-family="Verdana" font-size="12pt" font-weight="400" font-style="normal"  > <text fill="#000000" fill-opacity="1" stroke="none" xml:space="preserve" x="28" y="44" font-family="Verdana" font-size="12pt" font-weight="400" font-style="normal"   >13</text> </g>                    <g fill="none" stroke="#000000" stroke-opacity="1" stroke-width="1" stroke-linecap="butt" stroke-linejoin="bevel" transform="matrix(0,1,-1,0,102.98,130.684)" font-family="Sans Serif" font-size="9pt" font-weight="400" font-style="normal"  > <polyline fill="none" vector-effect="non-scaling-stroke" points="0,50.9902 26.0526,50.9902 " /> </g>          <g fill="#d3d3d3" fill-opacity="1" stroke="#d3d3d3" stroke-opacity="1" stroke-width="1" stroke-linecap="square" stroke-linejoin="bevel" transform="matrix(1,0,0,1,0.5,156.237)" font-family="Sans Serif" font-size="9pt" font-weight="400" font-style="normal"  > <circle cx="50.9902" cy="50.9902" r="50.9902"/> </g>  <g fill="#d3d3d3" fill-opacity="1" stroke="#000000" stroke-opacity="1" stroke-width="1" stroke-linecap="square" stroke-linejoin="bevel" transform="matrix(1,0,0,1,0.5,156.237)" font-family="Verdana" font-size="12pt" font-weight="400" font-style="normal"  > <text fill="#000000" fill-opacity="1" stroke="none" xml:space="preserve" x="43" y="59" font-family="Verdana" font-size="12pt" font-weight="400" font-style="normal"   >26</text> </g>                                                                                                                                                          <g fill="none" stroke="#000000" stroke-opacity="1" stroke-width="1" stroke-linecap="square" stroke-linejoin="bevel" transform="matrix(1,0,0,1,1,273.914)" font-family="Sans Serif" font-size="9pt" font-weight="400" font-style="normal"  > <polyline fill="none" vector-effect="none" points="0,5 50,5 " /> </g>      <g fill="none" stroke="#000000" stroke-opacity="1" stroke-width="1" stroke-linecap="square" stroke-linejoin="bevel" transform="matrix(1,0,0,1,1,273.914)" font-family="Sans Serif" font-size="9pt" font-weight="400" font-style="normal"  > <polyline fill="none" vector-effect="none" points="0,0 0,10 " /> </g>      <g fill="none" stroke="#000000" stroke-opacity="1" stroke-width="1" stroke-linecap="square" stroke-linejoin="bevel" transform="matrix(1,0,0,1,1,273.914)" font-family="Sans Serif" font-size="9pt" font-weight="400" font-style="normal"  > <polyline fill="none" vector-effect="none" points="50,0 50,10 " /> </g>      <g fill="none" stroke="#000000" stroke-opacity="1" stroke-width="1" stroke-linecap="square" stroke-linejoin="bevel" transform="matrix(1,0,0,1,1,283.914)" font-family="Sans Serif" font-size="9pt" font-weight="400" font-style="normal"  > <text fill="#000000" fill-opacity="1" stroke="none" xml:space="preserve" x="0" y="13" font-family="Sans Serif" font-size="9pt" font-weight="400" font-style="normal"   >21.1111</text> </g>     </g> </svg> 