<?xml version="1.0" encoding="UTF-8" standalone="no"?> <svg width="285.75mm" height="619.125mm"  viewBox="0 0 810.912 1755"  xmlns="http://www.w3.org/2000/svg" xmlns:xlink="http://www.w3.org/1999/xlink"  version="1.2" baseProfile="tiny"> <title>Generated with ETE http://etetoolkit.org</title> <desc>Generated with ETE http://etetoolkit.org</desc> <defs> </defs> <g fill="none" stroke="black" stroke-width="1" fill-rule="evenodd" stroke-linecap="square" stroke-linejoin="bevel" >      <g fill="none" stroke="none" transform="matrix(1,0,0,1,-446.044,0)" font-family="DejaVu Sans" font-size="12pt" font-weight="400" font-style="normal"  > <rect x="446.044" y="0" width="810.912" height="1755"/> </g>      <g fill="none" stroke="none" transform="matrix(0,1,-1,0,809.912,1)" font-family="DejaVu Sans" font-size="12pt" font-weight="400" font-style="normal"  > <rect x="0" y="0" width="1703" height="808.912"/> </g>                                                                                                                                            <g fill="#808080" fill-opacity="1" stroke="#808080" stroke-opacity="1" stroke-width="1" stroke-linecap="square" stroke-linejoin="bevel" transform="matrix(1,0,0,1,604.34,0.5)" font-family="DejaVu Sans" font-size="12pt" font-weight="400" font-style="normal"  > <circle cx="1" cy="1" r="1"/> </g>              <g fill="none" stroke="#000000" stroke-opacity="1" stroke-width="1" stroke-linecap="butt" stroke-linejoin="bevel" transform="matrix(0,1,-1,0,809.912,3)" font-family="DejaVu Sans" font-size="12pt" font-weight="400" font-style="normal"  > <polyline fill="none" vector-effect="non-scaling-stroke" points="982,40 982,368.144 " /> </g>            <g fill="none" stroke="#000000" stroke-opacity="1" stroke-width="1" stroke-linecap="butt" stroke-linejoin="bevel" transform="matrix(0,1,-1,0,809.912,3)" font-family="DejaVu Sans" font-size="12pt" font-weight="400" font-style="normal"  > <polyline fill="none" vector-effect="non-scaling-stroke" points="0,204.072 980,204.072 " /> </g>          <g fill="#808080" fill-opacity="1" stroke="#808080" stroke-opacity="1" stroke-width="1" stroke-linecap="square" stroke-linejoin="bevel" transform="matrix(1,0,0,1,604.34,982.5)" font-family="DejaVu Sans" font-size="12pt" font-weight="400" font-style="normal"  > <circle cx="1" cy="1" r="1"/> </g>              <g fill="none" stroke="#000000" stroke-opacity="1" stroke-width="1" stroke-linecap="butt" stroke-linejoin="bevel" transform="matrix(0,1,-1,0,809.912,985)" font-family="DejaVu Sans" font-size="12pt" font-weight="400" font-style="normal"  > <polyline fill="none" vector-effect="non-scaling-stroke" points="122,20 122,60 " /> </g>            <g fill="none" stroke="#000000" stroke-opacity="1" stroke-width="1" stroke-linecap="butt" stroke-linejoin="bevel" transform="matrix(0,1,-1,0,809.912,985)" font-family="DejaVu Sans" font-size="12pt" font-weight="400" font-style="normal"  > <polyline fill="none" vector-effect="non-scaling-stroke" points="0,40 120,40 " /> </g>          <g fill="#808080" fill-opacity="1" stroke="#808080" stroke-opacity="1" stroke-width="1" stroke-linecap="square" stroke-linejoin="bevel" transform="matrix(1,0,0,1,768.412,1104.5)" font-family="DejaVu Sans" font-size="12pt" font-weight="400" font-style="normal"  > <circle cx="1" cy="1" r="1"/> </g>                    <g fill="none" stroke="#000000" stroke-opacity="1" stroke-width="1" stroke-linecap="butt" stroke-linejoin="bevel" transform="matrix(0,1,-1,0,809.912,1107)" font-family="DejaVu Sans" font-size="12pt" font-weight="400" font-style="normal"  > <polyline fill="none" vector-effect="non-scaling-stroke" points="0,20 280,20 " /> </g>          <g fill="#1a6090" fill-opacity="1" stroke="none" transform="matrix(0,1,-1,0,799.912,1387)" font-family="DejaVu Sans" font-size="12pt" font-weight="400" font-style="normal"  > <path vector-effect="none" fill-rule="evenodd" d="M10,10 L20,10 C20,4.47715 15.5228,0 10,0 C4.47715,0 0,4.47715 0,10 C0,15.5228 4.47715,20 10,20 C15.5228,20 20,15.5228 20,10 L10,10"/> </g>      <g fill="none" stroke="#000000" stroke-opacity="1" stroke-width="1" stroke-linecap="square" stroke-linejoin="bevel" transform="matrix(1,0,0,1,785.412,1407)" font-family="Verdana" font-size="10pt" font-weight="400" font-style="normal"  > <text fill="#000000" fill-opacity="1" stroke="none" xml:space="preserve" x="0" y="13" font-family="Verdana" font-size="10pt" font-weight="400" font-style="normal"   >1</text> </g>                    <g fill="none" stroke="#000000" stroke-opacity="1" stroke-width="1" stroke-linecap="butt" stroke-linejoin="bevel" transform="matrix(0,1,-1,0,769.912,1107)" font-family="DejaVu Sans" font-size="12pt" font-weight="400" font-style="normal"  > <polyline fill="none" vector-effect="non-scaling-stroke" points="0,20 80,20 " /> </g>          <g fill="#1a6090" fill-opacity="1" stroke="none" transform="matrix(0,1,-1,0,759.912,1187)" font-family="DejaVu Sans" font-size="12pt" font-weight="400" font-style="normal"  > <path vector-effect="none" fill-rule="evenodd" d="M10,10 L20,10 C20,4.47715 15.5228,0 10,0 C4.47715,0 0,4.47715 0,10 C0,15.5228 4.47715,20 10,20 C15.5228,20 20,15.5228 20,10 L10,10"/> </g>      <g fill="none" stroke="#000000" stroke-opacity="1" stroke-width="1" stroke-linecap="square" stroke-linejoin="bevel" transform="matrix(1,0,0,1,745.412,1207)" font-family="Verdana" font-size="10pt" font-weight="400" font-style="normal"  > <text fill="#000000" fill-opacity="1" stroke="none" xml:space="preserve" x="0" y="13" font-family="Verdana" font-size="10pt" font-weight="400" font-style="normal"   >1</text> </g>              <g fill="none" stroke="#000000" stroke-opacity="1" stroke-width="1" stroke-linecap="butt" stroke-linejoin="bevel" transform="matrix(0,1,-1,0,729.912,985)" font-family="DejaVu Sans" font-size="12pt" font-weight="400" font-style="normal"  > <polyline fill="none" vector-effect="non-scaling-stroke" points="82,20 82,88.7298 " /> </g>            <g fill="none" stroke="#000000" stroke-opacity="1" stroke-width="1" stroke-linecap="butt" stroke-linejoin="bevel" transform="matrix(0,1,-1,0,729.912,985)" font-family="DejaVu Sans" font-size="12pt" font-weight="400" font-style="normal"  > <polyline fill="none" vector-effect="non-scaling-stroke" points="0,54.3649 80,54.3649 " /> </g>          <g fill="#808080" fill-opacity="1" stroke="#808080" stroke-opacity="1" stroke-width="1" stroke-linecap="square" stroke-linejoin="bevel" transform="matrix(1,0,0,1,674.047,1064.5)" font-family="DejaVu Sans" font-size="12pt" font-weight="400" font-style="normal"  > <circle cx="1" cy="1" r="1"/> </g>                    <g fill="none" stroke="#000000" stroke-opacity="1" stroke-width="1" stroke-linecap="butt" stroke-linejoin="bevel" transform="matrix(0,1,-1,0,729.912,1067)" font-family="DejaVu Sans" font-size="12pt" font-weight="400" font-style="normal"  > <polyline fill="none" vector-effect="non-scaling-stroke" points="0,20 140,20 " /> </g>          <g fill="#1a6090" fill-opacity="1" stroke="none" transform="matrix(0,1,-1,0,719.912,1207)" font-family="DejaVu Sans" font-size="12pt" font-weight="400" font-style="normal"  > <path vector-effect="none" fill-rule="evenodd" d="M10,10 L20,10 C20,4.47715 15.5228,0 10,0 C4.47715,0 0,4.47715 0,10 C0,15.5228 4.47715,20 10,20 C15.5228,20 20,15.5228 20,10 L10,10"/> </g>      <g fill="none" stroke="#000000" stroke-opacity="1" stroke-width="1" stroke-linecap="square" stroke-linejoin="bevel" transform="matrix(1,0,0,1,705.412,1227)" font-family="Verdana" font-size="10pt" font-weight="400" font-style="normal"  > <text fill="#000000" fill-opacity="1" stroke="none" xml:space="preserve" x="0" y="13" font-family="Verdana" font-size="10pt" font-weight="400" font-style="normal"   >1</text> </g>                    <g fill="none" stroke="#000000" stroke-opacity="1" stroke-width="1" stroke-linecap="butt" stroke-linejoin="bevel" transform="matrix(0,1,-1,0,689.912,1067)" font-family="DejaVu Sans" font-size="12pt" font-weight="400" font-style="normal"  > <polyline fill="none" vector-effect="non-scaling-stroke" points="0,48.7298 200,48.7298 " /> </g>          <g fill="#c42030" fill-opacity="1" stroke="none" transform="matrix(0,1,-1,0,679.912,1267)" font-family="DejaVu Sans" font-size="12pt" font-weight="400" font-style="normal"  > <path vector-effect="none" fill-rule="evenodd" d="M38.7298,38.7298 L77.4597,38.7298 C77.4597,27.3056 72.5133,17.0366 64.6454,9.9477 L38.7298,38.7298"/> </g>  <g fill="#e08c20" fill-opacity="1" stroke="none" transform="matrix(0,1,-1,0,679.912,1267)" font-family="DejaVu Sans" font-size="12pt" font-weight="400" font-style="normal"  > <path vector-effect="none" fill-rule="evenodd" d="M38.7298,38.7298 L64.6454,9.9477 C57.782,3.76391 48.6955,0 38.7298,0 C17.3399,0 0,17.3399 0,38.7298 C0,41.4978 0.290373,44.198 0.842318,46.8015 L38.7298,38.7298"/> </g>  <g fill="#1a6090" fill-opacity="1" stroke="none" transform="matrix(0,1,-1,0,679.912,1267)" font-family="DejaVu Sans" font-size="12pt" font-weight="400" font-style="normal"  > <path vector-effect="none" fill-rule="evenodd" d="M38.7298,38.7298 L0.842318,46.8015 C4.5556,64.3171 20.1079,77.4597 38.7298,77.4597 C60.1056,77.4597 77.4368,60.1426 77.4596,38.7721 L38.7298,38.7298"/> </g>      <g fill="none" stroke="#000000" stroke-opacity="1" stroke-width="1" stroke-linecap="square" stroke-linejoin="bevel" transform="matrix(1,0,0,1,632.182,1344.46)" font-family="Verdana" font-size="10pt" font-weight="400" font-style="normal"  > <text fill="#000000" fill-opacity="1" stroke="none" xml:space="preserve" x="0" y="13" font-family="Verdana" font-size="10pt" font-weight="400" font-style="normal"   >15</text> </g>              <g fill="none" stroke="#000000" stroke-opacity="1" stroke-width="1" stroke-linecap="butt" stroke-linejoin="bevel" transform="matrix(0,1,-1,0,592.452,985)" font-family="DejaVu Sans" font-size="12pt" font-weight="400" font-style="normal"  > <polyline fill="none" vector-effect="non-scaling-stroke" points="182,20 182,281.369 " /> </g>            <g fill="none" stroke="#000000" stroke-opacity="1" stroke-width="1" stroke-linecap="butt" stroke-linejoin="bevel" transform="matrix(0,1,-1,0,592.452,985)" font-family="DejaVu Sans" font-size="12pt" font-weight="400" font-style="normal"  > <polyline fill="none" vector-effect="non-scaling-stroke" points="0,150.684 180,150.684 " /> </g>          <g fill="#808080" fill-opacity="1" stroke="#808080" stroke-opacity="1" stroke-width="1" stroke-linecap="square" stroke-linejoin="bevel" transform="matrix(1,0,0,1,440.268,1164.5)" font-family="DejaVu Sans" font-size="12pt" font-weight="400" font-style="normal"  > <circle cx="1" cy="1" r="1"/> </g>                    <g fill="none" stroke="#000000" stroke-opacity="1" stroke-width="1" stroke-linecap="butt" stroke-linejoin="bevel" transform="matrix(0,1,-1,0,592.452,1167)" font-family="DejaVu Sans" font-size="12pt" font-weight="400" font-style="normal"  > <polyline fill="none" vector-effect="non-scaling-stroke" points="0,20 220,20 " /> </g>          <g fill="#e08c20" fill-opacity="1" stroke="none" transform="matrix(0,1,-1,0,582.452,1387)" font-family="DejaVu Sans" font-size="12pt" font-weight="400" font-style="normal"  > <path vector-effect="none" fill-rule="evenodd" d="M10,10 L20,10 C20,4.47715 15.5228,0 10,0 C4.47715,0 0,4.47715 0,10 C0,15.5228 4.47715,20 10,20 C15.5228,20 20,15.5228 20,10 L10,10"/> </g>      <g fill="none" stroke="#000000" stroke-opacity="1" stroke-width="1" stroke-linecap="square" stroke-linejoin="bevel" transform="matrix(1,0,0,1,567.952,1407)" font-family="Verdana" font-size="10pt" font-weight="400" font-style="normal"  > <text fill="#000000" fill-opacity="1" stroke="none" xml:space="preserve" x="0" y="13" font-family="Verdana" font-size="10pt" font-weight="400" font-style="normal"   >1</text> </g>              <g fill="none" stroke="#000000" stroke-opacity="1" stroke-width="1" stroke-linecap="butt" stroke-linejoin="bevel" transform="matrix(0,1,-1,0,552.452,1167)" font-family="DejaVu Sans" font-size="12pt" font-weight="400" font-style="normal"  > <polyline fill="none" vector-effect="non-scaling-stroke" points="22,63.75 22,418.988 " /> </g>            <g fill="none" stroke="#000000" stroke-opacity="1" stroke-width="1" stroke-linecap="butt" stroke-linejoin="bevel" transform="matrix(0,1,-1,0,552.452,1167)" font-family="DejaVu Sans" font-size="12pt" font-weight="400" font-style="normal"  > <polyline fill="none" vector-effect="non-scaling-stroke" points="0,241.369 20,241.369 " /> </g>          <g fill="#808080" fill-opacity="1" stroke="#808080" stroke-opacity="1" stroke-width="1" stroke-linecap="square" stroke-linejoin="bevel" transform="matrix(1,0,0,1,309.583,1186.5)" font-family="DejaVu Sans" font-size="12pt" font-weight="400" font-style="normal"  > <circle cx="1" cy="1" r="1"/> </g>              <g fill="none" stroke="#000000" stroke-opacity="1" stroke-width="1" stroke-linecap="butt" stroke-linejoin="bevel" transform="matrix(0,1,-1,0,552.452,1189)" font-family="DejaVu Sans" font-size="12pt" font-weight="400" font-style="normal"  > <polyline fill="none" vector-effect="non-scaling-stroke" points="42,20 42,107.5 " /> </g>            <g fill="none" stroke="#000000" stroke-opacity="1" stroke-width="1" stroke-linecap="butt" stroke-linejoin="bevel" transform="matrix(0,1,-1,0,552.452,1189)" font-family="DejaVu Sans" font-size="12pt" font-weight="400" font-style="normal"  > <polyline fill="none" vector-effect="non-scaling-stroke" points="0,63.75 40,63.75 " /> </g>          <g fill="#808080" fill-opacity="1" stroke="#808080" stroke-opacity="1" stroke-width="1" stroke-linecap="square" stroke-linejoin="bevel" transform="matrix(1,0,0,1,487.202,1228.5)" font-family="DejaVu Sans" font-size="12pt" font-weight="400" font-style="normal"  > <circle cx="1" cy="1" r="1"/> </g>                    <g fill="none" stroke="#000000" stroke-opacity="1" stroke-width="1" stroke-linecap="butt" stroke-linejoin="bevel" transform="matrix(0,1,-1,0,552.452,1231)" font-family="DejaVu Sans" font-size="12pt" font-weight="400" font-style="normal"  > <polyline fill="none" vector-effect="non-scaling-stroke" points="0,20 120,20 " /> </g>          <g fill="#c42030" fill-opacity="1" stroke="none" transform="matrix(0,1,-1,0,542.452,1351)" font-family="DejaVu Sans" font-size="12pt" font-weight="400" font-style="normal"  > <path vector-effect="none" fill-rule="evenodd" d="M10,10 L20,10 C20,4.47715 15.5228,0 10,0 C4.47715,0 0,4.47715 0,10 C0,15.5228 4.47715,20 10,20 C15.5228,20 20,15.5228 20,10 L10,10"/> </g>      <g fill="none" stroke="#000000" stroke-opacity="1" stroke-width="1" stroke-linecap="square" stroke-linejoin="bevel" transform="matrix(1,0,0,1,527.952,1371)" font-family="Verdana" font-size="10pt" font-weight="400" font-style="normal"  > <text fill="#000000" fill-opacity="1" stroke="none" xml:space="preserve" x="0" y="13" font-family="Verdana" font-size="10pt" font-weight="400" font-style="normal"   >1</text> </g>                          <g fill="none" stroke="#000000" stroke-opacity="1" stroke-width="1" stroke-linecap="butt" stroke-linejoin="bevel" transform="matrix(0,1,-1,0,512.452,1231)" font-family="DejaVu Sans" font-size="12pt" font-weight="400" font-style="normal"  > <polyline fill="none" vector-effect="non-scaling-stroke" points="0,67.5 40,67.5 " /> </g>          <g fill="#e08c20" fill-opacity="1" stroke="none" transform="matrix(0,1,-1,0,454.952,1271)" font-family="DejaVu Sans" font-size="12pt" font-weight="400" font-style="normal"  > <path vector-effect="none" fill-rule="evenodd" d="M10,10 L20,10 C20,4.47715 15.5228,0 10,0 C4.47715,0 0,4.47715 0,10 C0,15.5228 4.47715,20 10,20 C15.5228,20 20,15.5228 20,10 L10,10"/> </g>      <g fill="none" stroke="#000000" stroke-opacity="1" stroke-width="1" stroke-linecap="square" stroke-linejoin="bevel" transform="matrix(1,0,0,1,440.452,1291)" font-family="Verdana" font-size="10pt" font-weight="400" font-style="normal"  > <text fill="#000000" fill-opacity="1" stroke="none" xml:space="preserve" x="0" y="13" font-family="Verdana" font-size="10pt" font-weight="400" font-style="normal"   >1</text> </g>              <g fill="none" stroke="#000000" stroke-opacity="1" stroke-width="1" stroke-linecap="butt" stroke-linejoin="bevel" transform="matrix(0,1,-1,0,512.452,1308)" font-family="DejaVu Sans" font-size="12pt" font-weight="400" font-style="normal"  > <polyline fill="none" vector-effect="non-scaling-stroke" points="102,30 102,105 " /> </g>            <g fill="none" stroke="#000000" stroke-opacity="1" stroke-width="1" stroke-linecap="butt" stroke-linejoin="bevel" transform="matrix(0,1,-1,0,512.452,1308)" font-family="DejaVu Sans" font-size="12pt" font-weight="400" font-style="normal"  > <polyline fill="none" vector-effect="non-scaling-stroke" points="0,67.5 100,67.5 " /> </g>          <g fill="#808080" fill-opacity="1" stroke="#808080" stroke-opacity="1" stroke-width="1" stroke-linecap="square" stroke-linejoin="bevel" transform="matrix(1,0,0,1,443.452,1407.5)" font-family="DejaVu Sans" font-size="12pt" font-weight="400" font-style="normal"  > <circle cx="1" cy="1" r="1"/> </g>                          <g fill="none" stroke="#000000" stroke-opacity="1" stroke-width="1" stroke-linecap="butt" stroke-linejoin="bevel" transform="matrix(0,1,-1,0,512.452,1410)" font-family="DejaVu Sans" font-size="12pt" font-weight="400" font-style="normal"  > <polyline fill="none" vector-effect="non-scaling-stroke" points="0,30 120,30 " /> </g>          <g fill="#1a6090" fill-opacity="1" stroke="none" transform="matrix(0,1,-1,0,492.452,1530)" font-family="DejaVu Sans" font-size="12pt" font-weight="400" font-style="normal"  > <path vector-effect="none" fill-rule="evenodd" d="M10,10 L20,10 C20,4.47715 15.5228,0 10,0 C4.47715,0 0,4.47715 0,10 C0,15.5228 4.47715,20 10,20 C15.5228,20 20,15.5228 20,10 L10,10"/> </g>      <g fill="none" stroke="#000000" stroke-opacity="1" stroke-width="1" stroke-linecap="square" stroke-linejoin="bevel" transform="matrix(1,0,0,1,477.952,1550)" font-family="Verdana" font-size="10pt" font-weight="400" font-style="normal"  > <text fill="#000000" fill-opacity="1" stroke="none" xml:space="preserve" x="0" y="13" font-family="Verdana" font-size="10pt" font-weight="400" font-style="normal"   >1</text> </g>                    <g fill="none" stroke="#000000" stroke-opacity="1" stroke-width="1" stroke-linecap="butt" stroke-linejoin="bevel" transform="matrix(0,1,-1,0,512.452,1567)" font-family="DejaVu Sans" font-size="12pt" font-weight="400" font-style="normal"  > <polyline fill="none" vector-effect="non-scaling-stroke" points="0,30 80,30 " /> </g>          <g fill="#e08c20" fill-opacity="1" stroke="none" transform="matrix(0,1,-1,0,502.452,1647)" font-family="DejaVu Sans" font-size="12pt" font-weight="400" font-style="normal"  > <path vector-effect="none" fill-rule="evenodd" d="M20,20 L40,20 C40,8.95431 31.0457,0 20,0 C8.95431,0 0,8.95431 0,20 C0,31.0457 8.95431,40 20,40 C31.0457,40 40,31.0457 40,20 L20,20"/> </g>      <g fill="none" stroke="#000000" stroke-opacity="1" stroke-width="1" stroke-linecap="square" stroke-linejoin="bevel" transform="matrix(1,0,0,1,477.952,1687)" font-family="Verdana" font-size="10pt" font-weight="400" font-style="normal"  > <text fill="#000000" fill-opacity="1" stroke="none" xml:space="preserve" x="0" y="13" font-family="Verdana" font-size="10pt" font-weight="400" font-style="normal"   >4</text> </g>              <g fill="none" stroke="#000000" stroke-opacity="1" stroke-width="1" stroke-linecap="butt" stroke-linejoin="bevel" transform="matrix(0,1,-1,0,452.452,1410)" font-family="DejaVu Sans" font-size="12pt" font-weight="400" font-style="normal"  > <polyline fill="none" vector-effect="non-scaling-stroke" points="22,20 22,70 " /> </g>            <g fill="none" stroke="#000000" stroke-opacity="1" stroke-width="1" stroke-linecap="butt" stroke-linejoin="bevel" transform="matrix(0,1,-1,0,452.452,1410)" font-family="DejaVu Sans" font-size="12pt" font-weight="400" font-style="normal"  > <polyline fill="none" vector-effect="non-scaling-stroke" points="0,45 20,45 " /> </g>          <g fill="#808080" fill-opacity="1" stroke="#808080" stroke-opacity="1" stroke-width="1" stroke-linecap="square" stroke-linejoin="bevel" transform="matrix(1,0,0,1,405.952,1429.5)" font-family="DejaVu Sans" font-size="12pt" font-weight="400" font-style="normal"  > <circle cx="1" cy="1" r="1"/> </g>                    <g fill="none" stroke="#000000" stroke-opacity="1" stroke-width="1" stroke-linecap="butt" stroke-linejoin="bevel" transform="matrix(0,1,-1,0,452.452,1432)" font-family="DejaVu Sans" font-size="12pt" font-weight="400" font-style="normal"  > <polyline fill="none" vector-effect="non-scaling-stroke" points="0,20 80,20 " /> </g>          <g fill="#e08c20" fill-opacity="1" stroke="none" transform="matrix(0,1,-1,0,442.452,1512)" font-family="DejaVu Sans" font-size="12pt" font-weight="400" font-style="normal"  > <path vector-effect="none" fill-rule="evenodd" d="M10,10 L20,10 C20,4.47715 15.5228,0 10,0 C4.47715,0 0,4.47715 0,10 C0,15.5228 4.47715,20 10,20 C15.5228,20 20,15.5228 20,10 L10,10"/> </g>      <g fill="none" stroke="#000000" stroke-opacity="1" stroke-width="1" stroke-linecap="square" stroke-linejoin="bevel" transform="matrix(1,0,0,1,427.952,1532)" font-family="Verdana" font-size="10pt" font-weight="400" font-style="normal"  > <text fill="#000000" fill-opacity="1" stroke="none" xml:space="preserve" x="0" y="13" font-family="Verdana" font-size="10pt" font-weight="400" font-style="normal"   >1</text> </g>                    <g fill="none" stroke="#000000" stroke-opacity="1" stroke-width="1" stroke-linecap="butt" stroke-linejoin="bevel" transform="matrix(0,1,-1,0,412.452,1432)" font-family="DejaVu Sans" font-size="12pt" font-weight="400" font-style="normal"  > <polyline fill="none" vector-effect="non-scaling-stroke" points="0,30 100,30 " /> </g>          <g fill="#e08c20" fill-opacity="1" stroke="none" transform="matrix(0,1,-1,0,402.452,1532)" font-family="DejaVu Sans" font-size="12pt" font-weight="400" font-style="normal"  > <path vector-effect="none" fill-rule="evenodd" d="M20,20 L40,20 C40,8.95431 31.0457,0 20,0 C8.95431,0 0,8.95431 0,20 C0,31.0457 8.95431,40 20,40 C31.0457,40 40,31.0457 40,20 L20,20"/> </g>      <g fill="none" stroke="#000000" stroke-opacity="1" stroke-width="1" stroke-linecap="square" stroke-linejoin="bevel" transform="matrix(1,0,0,1,377.952,1572)" font-family="Verdana" font-size="10pt" font-weight="400" font-style="normal"  > <text fill="#000000" fill-opacity="1" stroke="none" xml:space="preserve" x="0" y="13" font-family="Verdana" font-size="10pt" font-weight="400" font-style="normal"   >4</text> </g>              <g fill="none" stroke="#000000" stroke-opacity="1" stroke-width="1" stroke-linecap="butt" stroke-linejoin="bevel" transform="matrix(0,1,-1,0,352.452,1189)" font-family="DejaVu Sans" font-size="12pt" font-weight="400" font-style="normal"  > <polyline fill="none" vector-effect="non-scaling-stroke" points="22,20 22,87.4166 " /> </g>            <g fill="none" stroke="#000000" stroke-opacity="1" stroke-width="1" stroke-linecap="butt" stroke-linejoin="bevel" transform="matrix(0,1,-1,0,352.452,1189)" font-family="DejaVu Sans" font-size="12pt" font-weight="400" font-style="normal"  > <polyline fill="none" vector-effect="non-scaling-stroke" points="0,53.7083 20,53.7083 " /> </g>          <g fill="#808080" fill-opacity="1" stroke="#808080" stroke-opacity="1" stroke-width="1" stroke-linecap="square" stroke-linejoin="bevel" transform="matrix(1,0,0,1,297.244,1208.5)" font-family="DejaVu Sans" font-size="12pt" font-weight="400" font-style="normal"  > <circle cx="1" cy="1" r="1"/> </g>                    <g fill="none" stroke="#000000" stroke-opacity="1" stroke-width="1" stroke-linecap="butt" stroke-linejoin="bevel" transform="matrix(0,1,-1,0,352.452,1211)" font-family="DejaVu Sans" font-size="12pt" font-weight="400" font-style="normal"  > <polyline fill="none" vector-effect="non-scaling-stroke" points="0,20 140,20 " /> </g>          <g fill="#e08c20" fill-opacity="1" stroke="none" transform="matrix(0,1,-1,0,342.452,1351)" font-family="DejaVu Sans" font-size="12pt" font-weight="400" font-style="normal"  > <path vector-effect="none" fill-rule="evenodd" d="M10,10 L20,10 C20,4.47715 15.5228,0 10,0 C4.47715,0 0,4.47715 0,10 C0,15.5228 4.47715,20 10,20 C15.5228,20 20,15.5228 20,10 L10,10"/> </g>      <g fill="none" stroke="#000000" stroke-opacity="1" stroke-width="1" stroke-linecap="square" stroke-linejoin="bevel" transform="matrix(1,0,0,1,327.952,1371)" font-family="Verdana" font-size="10pt" font-weight="400" font-style="normal"  > <text fill="#000000" fill-opacity="1" stroke="none" xml:space="preserve" x="0" y="13" font-family="Verdana" font-size="10pt" font-weight="400" font-style="normal"   >1</text> </g>                    <g fill="none" stroke="#000000" stroke-opacity="1" stroke-width="1" stroke-linecap="butt" stroke-linejoin="bevel" transform="matrix(0,1,-1,0,312.452,1211)" font-family="DejaVu Sans" font-size="12pt" font-weight="400" font-style="normal"  > <polyline fill="none" vector-effect="non-scaling-stroke" points="0,47.4166 240,47.4166 " /> </g>          <g fill="#e08c20" fill-opacity="1" stroke="none" transform="matrix(0,1,-1,0,302.452,1451)" font-family="DejaVu Sans" font-size="12pt" font-weight="400" font-style="normal"  > <path vector-effect="none" fill-rule="evenodd" d="M37.4166,37.4166 L74.8331,37.4166 C74.8331,16.752 58.0812,0 37.4166,0 C16.752,0 0,16.752 0,37.4166 C0,58.0812 16.752,74.8331 37.4166,74.8331 C52.2533,74.8331 65.0731,66.1977 71.1239,53.6787 L37.4166,37.4166"/> </g>  <g fill="#2aaac8" fill-opacity="1" stroke="none" transform="matrix(0,1,-1,0,302.452,1451)" font-family="DejaVu Sans" font-size="12pt" font-weight="400" font-style="normal"  > <path vector-effect="none" fill-rule="evenodd" d="M37.4166,37.4166 L71.1239,53.6787 C73.4952,48.7727 74.8269,43.2702 74.8331,37.4574 L37.4166,37.4166"/> </g>      <g fill="none" stroke="#000000" stroke-opacity="1" stroke-width="1" stroke-linecap="square" stroke-linejoin="bevel" transform="matrix(1,0,0,1,256.036,1525.83)" font-family="Verdana" font-size="10pt" font-weight="400" font-style="normal"  > <text fill="#000000" fill-opacity="1" stroke="none" xml:space="preserve" x="0" y="13" font-family="Verdana" font-size="10pt" font-weight="400" font-style="normal"   >14</text> </g>              <g fill="none" stroke="#000000" stroke-opacity="1" stroke-width="1" stroke-linecap="butt" stroke-linejoin="bevel" transform="matrix(0,1,-1,0,217.619,1189)" font-family="DejaVu Sans" font-size="12pt" font-weight="400" font-style="normal"  > <polyline fill="none" vector-effect="non-scaling-stroke" points="42,20 42,148.31 " /> </g>            <g fill="none" stroke="#000000" stroke-opacity="1" stroke-width="1" stroke-linecap="butt" stroke-linejoin="bevel" transform="matrix(0,1,-1,0,217.619,1189)" font-family="DejaVu Sans" font-size="12pt" font-weight="400" font-style="normal"  > <polyline fill="none" vector-effect="non-scaling-stroke" points="0,84.1548 40,84.1548 " /> </g>          <g fill="#808080" fill-opacity="1" stroke="#808080" stroke-opacity="1" stroke-width="1" stroke-linecap="square" stroke-linejoin="bevel" transform="matrix(1,0,0,1,131.964,1228.5)" font-family="DejaVu Sans" font-size="12pt" font-weight="400" font-style="normal"  > <circle cx="1" cy="1" r="1"/> </g>                    <g fill="none" stroke="#000000" stroke-opacity="1" stroke-width="1" stroke-linecap="butt" stroke-linejoin="bevel" transform="matrix(0,1,-1,0,217.619,1231)" font-family="DejaVu Sans" font-size="12pt" font-weight="400" font-style="normal"  > <polyline fill="none" vector-effect="non-scaling-stroke" points="0,20 40,20 " /> </g>          <g fill="#1a6090" fill-opacity="1" stroke="none" transform="matrix(0,1,-1,0,207.619,1271)" font-family="DejaVu Sans" font-size="12pt" font-weight="400" font-style="normal"  > <path vector-effect="none" fill-rule="evenodd" d="M10,10 L20,10 C20,4.47715 15.5228,0 10,0 C4.47715,0 0,4.47715 0,10 C0,15.5228 4.47715,20 10,20 C15.5228,20 20,15.5228 20,10 L10,10"/> </g>      <g fill="none" stroke="#000000" stroke-opacity="1" stroke-width="1" stroke-linecap="square" stroke-linejoin="bevel" transform="matrix(1,0,0,1,193.119,1291)" font-family="Verdana" font-size="10pt" font-weight="400" font-style="normal"  > <text fill="#000000" fill-opacity="1" stroke="none" xml:space="preserve" x="0" y="13" font-family="Verdana" font-size="10pt" font-weight="400" font-style="normal"   >1</text> </g>                    <g fill="none" stroke="#000000" stroke-opacity="1" stroke-width="1" stroke-linecap="butt" stroke-linejoin="bevel" transform="matrix(0,1,-1,0,177.619,1231)" font-family="DejaVu Sans" font-size="12pt" font-weight="400" font-style="normal"  > <polyline fill="none" vector-effect="non-scaling-stroke" points="0,20 120,20 " /> </g>          <g fill="#1a6090" fill-opacity="1" stroke="none" transform="matrix(0,1,-1,0,167.619,1351)" font-family="DejaVu Sans" font-size="12pt" font-weight="400" font-style="normal"  > <path vector-effect="none" fill-rule="evenodd" d="M10,10 L20,10 C20,4.47715 15.5228,0 10,0 C4.47715,0 0,4.47715 0,10 C0,15.5228 4.47715,20 10,20 C15.5228,20 20,15.5228 20,10 L10,10"/> </g>      <g fill="none" stroke="#000000" stroke-opacity="1" stroke-width="1" stroke-linecap="square" stroke-linejoin="bevel" transform="matrix(1,0,0,1,153.119,1371)" font-family="Verdana" font-size="10pt" font-weight="400" font-style="normal"  > <text fill="#000000" fill-opacity="1" stroke="none" xml:space="preserve" x="0" y="13" font-family="Verdana" font-size="10pt" font-weight="400" font-style="normal"   >1</text> </g>                          <g fill="none" stroke="#000000" stroke-opacity="1" stroke-width="1" stroke-linecap="butt" stroke-linejoin="bevel" transform="matrix(0,1,-1,0,137.619,1231)" font-family="DejaVu Sans" font-size="12pt" font-weight="400" font-style="normal"  > <polyline fill="none" vector-effect="non-scaling-stroke" points="0,68.3095 40,68.3095 " /> </g>          <g fill="#e08c20" fill-opacity="1" stroke="none" transform="matrix(0,1,-1,0,127.619,1271)" font-family="DejaVu Sans" font-size="12pt" font-weight="400" font-style="normal"  > <path vector-effect="none" fill-rule="evenodd" d="M58.3095,58.3095 L116.619,58.3095 C116.619,26.1061 90.513,0 58.3095,0 C26.1061,0 0,26.1061 0,58.3095 C0,88.6912 23.2359,113.646 52.9063,116.372 L58.3095,58.3095"/> </g>  <g fill="#1a6090" fill-opacity="1" stroke="none" transform="matrix(0,1,-1,0,127.619,1271)" font-family="DejaVu Sans" font-size="12pt" font-weight="400" font-style="normal"  > <path vector-effect="none" fill-rule="evenodd" d="M58.3095,58.3095 L52.9063,116.372 C54.6855,116.535 56.4877,116.619 58.3095,116.619 C90.4918,116.619 116.585,90.5473 116.619,58.3731 L58.3095,58.3095"/> </g>      <g fill="none" stroke="#000000" stroke-opacity="1" stroke-width="1" stroke-linecap="square" stroke-linejoin="bevel" transform="matrix(1,0,0,1,60.3095,1387.62)" font-family="Verdana" font-size="10pt" font-weight="400" font-style="normal"  > <text fill="#000000" fill-opacity="1" stroke="none" xml:space="preserve" x="0" y="13" font-family="Verdana" font-size="10pt" font-weight="400" font-style="normal"   >34</text> </g>                    <g fill="none" stroke="#000000" stroke-opacity="1" stroke-width="1" stroke-linecap="butt" stroke-linejoin="bevel" transform="matrix(0,1,-1,0,93.4517,1404.62)" font-family="DejaVu Sans" font-size="12pt" font-weight="400" font-style="normal"  > <polyline fill="none" vector-effect="non-scaling-stroke" points="0,24.1421 160,24.1421 " /> </g>          <g fill="#e08c20" fill-opacity="1" stroke="none" transform="matrix(0,1,-1,0,83.4517,1564.62)" font-family="DejaVu Sans" font-size="12pt" font-weight="400" font-style="normal"  > <path vector-effect="none" fill-rule="evenodd" d="M14.1421,14.1421 L28.2843,14.1421 C28.2843,6.33165 21.9526,0 14.1421,0 C6.33165,0 0,6.33165 0,14.1421 C0,21.9526 6.33165,28.2843 14.1421,28.2843 C21.9526,28.2843 28.2843,21.9526 28.2843,14.1421 L14.1421,14.1421"/> </g>      <g fill="none" stroke="#000000" stroke-opacity="1" stroke-width="1" stroke-linecap="square" stroke-linejoin="bevel" transform="matrix(1,0,0,1,64.8095,1592.9)" font-family="Verdana" font-size="10pt" font-weight="400" font-style="normal"  > <text fill="#000000" fill-opacity="1" stroke="none" xml:space="preserve" x="0" y="13" font-family="Verdana" font-size="10pt" font-weight="400" font-style="normal"   >2</text> </g>                                                                                                                              <g fill="none" stroke="#000000" stroke-opacity="1" stroke-width="1" stroke-linecap="square" stroke-linejoin="bevel" transform="matrix(1,0,0,1,1,1705)" font-family="DejaVu Sans" font-size="12pt" font-weight="400" font-style="normal"  > <polyline fill="none" vector-effect="none" points="0,5 50,5 " /> </g>      <g fill="none" stroke="#000000" stroke-opacity="1" stroke-width="1" stroke-linecap="square" stroke-linejoin="bevel" transform="matrix(1,0,0,1,1,1705)" font-family="DejaVu Sans" font-size="12pt" font-weight="400" font-style="normal"  > <polyline fill="none" vector-effect="none" points="0,0 0,10 " /> </g>      <g fill="none" stroke="#000000" stroke-opacity="1" stroke-width="1" stroke-linecap="square" stroke-linejoin="bevel" transform="matrix(1,0,0,1,1,1705)" font-family="DejaVu Sans" font-size="12pt" font-weight="400" font-style="normal"  > <polyline fill="none" vector-effect="none" points="50,0 50,10 " /> </g>      <g fill="none" stroke="#000000" stroke-opacity="1" stroke-width="1" stroke-linecap="square" stroke-linejoin="bevel" transform="matrix(1,0,0,1,1,1715)" font-family="DejaVu Sans" font-size="12pt" font-weight="400" font-style="normal"  > <text fill="#000000" fill-opacity="1" stroke="none" xml:space="preserve" x="0" y="16" font-family="DejaVu Sans" font-size="12pt" font-weight="400" font-style="normal"   >2.5</text> </g>     </g> </svg> 