<?xml version="1.0" encoding="utf-8" standalone="no"?>
<!DOCTYPE svg PUBLIC "-//W3C//DTD SVG 1.1//EN"
  "http://www.w3.org/Graphics/SVG/1.1/DTD/svg11.dtd">
<svg xmlns:xlink="http://www.w3.org/1999/xlink" width="460.8pt" height="345.6pt" viewBox="0 0 460.8 345.6" xmlns="http://www.w3.org/2000/svg" version="1.1">
 <metadata>
  <rdf:RDF xmlns:dc="http://purl.org/dc/elements/1.1/" xmlns:cc="http://creativecommons.org/ns#" xmlns:rdf="http://www.w3.org/1999/02/22-rdf-syntax-ns#">
   <cc:Work>
    <dc:type rdf:resource="http://purl.org/dc/dcmitype/StillImage"/>
    <dc:date>2026-04-29T14:54:41.473005</dc:date>
    <dc:format>image/svg+xml</dc:format>
    <dc:creator>
     <cc:Agent>
      <dc:title>Matplotlib v3.10.9, https://matplotlib.org/</dc:title>
     </cc:Agent>
    </dc:creator>
   </cc:Work>
  </rdf:RDF>
 </metadata>
 <defs>
  <style type="text/css">*{stroke-linejoin: round; stroke-linecap: butt}</style>
 </defs>
 <g id="figure_1">
  <g id="patch_1">
   <path d="M 0 345.6 
L 460.8 345.6 
L 460.8 0 
L 0 0 
z
" style="fill: #ffffff"/>
  </g>
  <g id="axes_1">
   <g id="patch_2">
    <path d="M 57.6 307.584 
L 414.72 307.584 
L 414.72 41.472 
L 57.6 41.472 
z
" style="fill: #ffffff"/>
   </g>
   <g id="patch_3">
    <path d="M 73.832727 307.584 
L 77.25916 307.584 
L 77.25916 54.144 
L 73.832727 54.144 
z
" clip-path="url(#p0beeb0e18b)"/>
   </g>
   <g id="patch_4">
    <path d="M 78.115769 307.584 
L 81.542202 307.584 
L 81.542202 209.024 
L 78.115769 209.024 
z
" clip-path="url(#p0beeb0e18b)"/>
   </g>
   <g id="patch_5">
    <path d="M 82.39881 307.584 
L 85.825243 307.584 
L 85.825243 209.024 
L 82.39881 209.024 
z
" clip-path="url(#p0beeb0e18b)"/>
   </g>
   <g id="patch_6">
    <path d="M 86.681852 307.584 
L 90.108285 307.584 
L 90.108285 209.024 
L 86.681852 209.024 
z
" clip-path="url(#p0beeb0e18b)"/>
   </g>
   <g id="patch_7">
    <path d="M 90.964893 307.584 
L 94.391326 307.584 
L 94.391326 237.184 
L 90.964893 237.184 
z
" clip-path="url(#p0beeb0e18b)"/>
   </g>
   <g id="patch_8">
    <path d="M 95.247935 307.584 
L 98.674368 307.584 
L 98.674368 251.264 
L 95.247935 251.264 
z
" clip-path="url(#p0beeb0e18b)"/>
   </g>
   <g id="patch_9">
    <path d="M 99.530976 307.584 
L 102.957409 307.584 
L 102.957409 265.344 
L 99.530976 265.344 
z
" clip-path="url(#p0beeb0e18b)"/>
   </g>
   <g id="patch_10">
    <path d="M 103.814018 307.584 
L 107.240451 307.584 
L 107.240451 265.344 
L 103.814018 265.344 
z
" clip-path="url(#p0beeb0e18b)"/>
   </g>
   <g id="patch_11">
    <path d="M 108.097059 307.584 
L 111.523492 307.584 
L 111.523492 265.344 
L 108.097059 265.344 
z
" clip-path="url(#p0beeb0e18b)"/>
   </g>
   <g id="patch_12">
    <path d="M 112.380101 307.584 
L 115.806534 307.584 
L 115.806534 279.424 
L 112.380101 279.424 
z
" clip-path="url(#p0beeb0e18b)"/>
   </g>
   <g id="patch_13">
    <path d="M 116.663142 307.584 
L 120.089575 307.584 
L 120.089575 279.424 
L 116.663142 279.424 
z
" clip-path="url(#p0beeb0e18b)"/>
   </g>
   <g id="patch_14">
    <path d="M 120.946184 307.584 
L 124.372617 307.584 
L 124.372617 279.424 
L 120.946184 279.424 
z
" clip-path="url(#p0beeb0e18b)"/>
   </g>
   <g id="patch_15">
    <path d="M 125.229225 307.584 
L 128.655658 307.584 
L 128.655658 279.424 
L 125.229225 279.424 
z
" clip-path="url(#p0beeb0e18b)"/>
   </g>
   <g id="patch_16">
    <path d="M 129.512267 307.584 
L 132.9387 307.584 
L 132.9387 279.424 
L 129.512267 279.424 
z
" clip-path="url(#p0beeb0e18b)"/>
   </g>
   <g id="patch_17">
    <path d="M 133.795308 307.584 
L 137.221741 307.584 
L 137.221741 279.424 
L 133.795308 279.424 
z
" clip-path="url(#p0beeb0e18b)"/>
   </g>
   <g id="patch_18">
    <path d="M 138.07835 307.584 
L 141.504783 307.584 
L 141.504783 279.424 
L 138.07835 279.424 
z
" clip-path="url(#p0beeb0e18b)"/>
   </g>
   <g id="patch_19">
    <path d="M 142.361391 307.584 
L 145.787824 307.584 
L 145.787824 279.424 
L 142.361391 279.424 
z
" clip-path="url(#p0beeb0e18b)"/>
   </g>
   <g id="patch_20">
    <path d="M 146.644433 307.584 
L 150.070866 307.584 
L 150.070866 279.424 
L 146.644433 279.424 
z
" clip-path="url(#p0beeb0e18b)"/>
   </g>
   <g id="patch_21">
    <path d="M 150.927474 307.584 
L 154.353907 307.584 
L 154.353907 279.424 
L 150.927474 279.424 
z
" clip-path="url(#p0beeb0e18b)"/>
   </g>
   <g id="patch_22">
    <path d="M 155.210516 307.584 
L 158.636949 307.584 
L 158.636949 279.424 
L 155.210516 279.424 
z
" clip-path="url(#p0beeb0e18b)"/>
   </g>
   <g id="patch_23">
    <path d="M 159.493557 307.584 
L 162.91999 307.584 
L 162.91999 279.424 
L 159.493557 279.424 
z
" clip-path="url(#p0beeb0e18b)"/>
   </g>
   <g id="patch_24">
    <path d="M 163.776599 307.584 
L 167.203032 307.584 
L 167.203032 293.504 
L 163.776599 293.504 
z
" clip-path="url(#p0beeb0e18b)"/>
   </g>
   <g id="patch_25">
    <path d="M 168.05964 307.584 
L 171.486073 307.584 
L 171.486073 293.504 
L 168.05964 293.504 
z
" clip-path="url(#p0beeb0e18b)"/>
   </g>
   <g id="patch_26">
    <path d="M 172.342682 307.584 
L 175.769115 307.584 
L 175.769115 293.504 
L 172.342682 293.504 
z
" clip-path="url(#p0beeb0e18b)"/>
   </g>
   <g id="patch_27">
    <path d="M 176.625723 307.584 
L 180.052156 307.584 
L 180.052156 293.504 
L 176.625723 293.504 
z
" clip-path="url(#p0beeb0e18b)"/>
   </g>
   <g id="patch_28">
    <path d="M 180.908765 307.584 
L 184.335198 307.584 
L 184.335198 293.504 
L 180.908765 293.504 
z
" clip-path="url(#p0beeb0e18b)"/>
   </g>
   <g id="patch_29">
    <path d="M 185.191806 307.584 
L 188.618239 307.584 
L 188.618239 293.504 
L 185.191806 293.504 
z
" clip-path="url(#p0beeb0e18b)"/>
   </g>
   <g id="patch_30">
    <path d="M 189.474848 307.584 
L 192.901281 307.584 
L 192.901281 293.504 
L 189.474848 293.504 
z
" clip-path="url(#p0beeb0e18b)"/>
   </g>
   <g id="patch_31">
    <path d="M 193.757889 307.584 
L 197.184322 307.584 
L 197.184322 293.504 
L 193.757889 293.504 
z
" clip-path="url(#p0beeb0e18b)"/>
   </g>
   <g id="patch_32">
    <path d="M 198.040931 307.584 
L 201.467364 307.584 
L 201.467364 293.504 
L 198.040931 293.504 
z
" clip-path="url(#p0beeb0e18b)"/>
   </g>
   <g id="patch_33">
    <path d="M 202.323972 307.584 
L 205.750405 307.584 
L 205.750405 293.504 
L 202.323972 293.504 
z
" clip-path="url(#p0beeb0e18b)"/>
   </g>
   <g id="patch_34">
    <path d="M 206.607014 307.584 
L 210.033447 307.584 
L 210.033447 293.504 
L 206.607014 293.504 
z
" clip-path="url(#p0beeb0e18b)"/>
   </g>
   <g id="patch_35">
    <path d="M 210.890055 307.584 
L 214.316488 307.584 
L 214.316488 293.504 
L 210.890055 293.504 
z
" clip-path="url(#p0beeb0e18b)"/>
   </g>
   <g id="patch_36">
    <path d="M 215.173097 307.584 
L 218.59953 307.584 
L 218.59953 293.504 
L 215.173097 293.504 
z
" clip-path="url(#p0beeb0e18b)"/>
   </g>
   <g id="patch_37">
    <path d="M 219.456138 307.584 
L 222.882571 307.584 
L 222.882571 293.504 
L 219.456138 293.504 
z
" clip-path="url(#p0beeb0e18b)"/>
   </g>
   <g id="patch_38">
    <path d="M 223.73918 307.584 
L 227.165613 307.584 
L 227.165613 293.504 
L 223.73918 293.504 
z
" clip-path="url(#p0beeb0e18b)"/>
   </g>
   <g id="patch_39">
    <path d="M 228.022221 307.584 
L 231.448654 307.584 
L 231.448654 293.504 
L 228.022221 293.504 
z
" clip-path="url(#p0beeb0e18b)"/>
   </g>
   <g id="patch_40">
    <path d="M 232.305263 307.584 
L 235.731696 307.584 
L 235.731696 293.504 
L 232.305263 293.504 
z
" clip-path="url(#p0beeb0e18b)"/>
   </g>
   <g id="patch_41">
    <path d="M 236.588304 307.584 
L 240.014737 307.584 
L 240.014737 293.504 
L 236.588304 293.504 
z
" clip-path="url(#p0beeb0e18b)"/>
   </g>
   <g id="patch_42">
    <path d="M 240.871346 307.584 
L 244.297779 307.584 
L 244.297779 293.504 
L 240.871346 293.504 
z
" clip-path="url(#p0beeb0e18b)"/>
   </g>
   <g id="patch_43">
    <path d="M 245.154387 307.584 
L 248.58082 307.584 
L 248.58082 293.504 
L 245.154387 293.504 
z
" clip-path="url(#p0beeb0e18b)"/>
   </g>
   <g id="patch_44">
    <path d="M 249.437429 307.584 
L 252.863862 307.584 
L 252.863862 293.504 
L 249.437429 293.504 
z
" clip-path="url(#p0beeb0e18b)"/>
   </g>
   <g id="patch_45">
    <path d="M 253.72047 307.584 
L 257.146903 307.584 
L 257.146903 293.504 
L 253.72047 293.504 
z
" clip-path="url(#p0beeb0e18b)"/>
   </g>
   <g id="patch_46">
    <path d="M 258.003512 307.584 
L 261.429945 307.584 
L 261.429945 293.504 
L 258.003512 293.504 
z
" clip-path="url(#p0beeb0e18b)"/>
   </g>
   <g id="patch_47">
    <path d="M 262.286553 307.584 
L 265.712986 307.584 
L 265.712986 293.504 
L 262.286553 293.504 
z
" clip-path="url(#p0beeb0e18b)"/>
   </g>
   <g id="patch_48">
    <path d="M 266.569595 307.584 
L 269.996028 307.584 
L 269.996028 293.504 
L 266.569595 293.504 
z
" clip-path="url(#p0beeb0e18b)"/>
   </g>
   <g id="patch_49">
    <path d="M 270.852636 307.584 
L 274.279069 307.584 
L 274.279069 293.504 
L 270.852636 293.504 
z
" clip-path="url(#p0beeb0e18b)"/>
   </g>
   <g id="patch_50">
    <path d="M 275.135678 307.584 
L 278.562111 307.584 
L 278.562111 293.504 
L 275.135678 293.504 
z
" clip-path="url(#p0beeb0e18b)"/>
   </g>
   <g id="patch_51">
    <path d="M 279.418719 307.584 
L 282.845152 307.584 
L 282.845152 293.504 
L 279.418719 293.504 
z
" clip-path="url(#p0beeb0e18b)"/>
   </g>
   <g id="patch_52">
    <path d="M 283.701761 307.584 
L 287.128194 307.584 
L 287.128194 293.504 
L 283.701761 293.504 
z
" clip-path="url(#p0beeb0e18b)"/>
   </g>
   <g id="patch_53">
    <path d="M 287.984802 307.584 
L 291.411235 307.584 
L 291.411235 293.504 
L 287.984802 293.504 
z
" clip-path="url(#p0beeb0e18b)"/>
   </g>
   <g id="patch_54">
    <path d="M 292.267844 307.584 
L 295.694277 307.584 
L 295.694277 293.504 
L 292.267844 293.504 
z
" clip-path="url(#p0beeb0e18b)"/>
   </g>
   <g id="patch_55">
    <path d="M 296.550885 307.584 
L 299.977318 307.584 
L 299.977318 293.504 
L 296.550885 293.504 
z
" clip-path="url(#p0beeb0e18b)"/>
   </g>
   <g id="patch_56">
    <path d="M 300.833927 307.584 
L 304.26036 307.584 
L 304.26036 293.504 
L 300.833927 293.504 
z
" clip-path="url(#p0beeb0e18b)"/>
   </g>
   <g id="patch_57">
    <path d="M 305.116968 307.584 
L 308.543401 307.584 
L 308.543401 293.504 
L 305.116968 293.504 
z
" clip-path="url(#p0beeb0e18b)"/>
   </g>
   <g id="patch_58">
    <path d="M 309.40001 307.584 
L 312.826443 307.584 
L 312.826443 293.504 
L 309.40001 293.504 
z
" clip-path="url(#p0beeb0e18b)"/>
   </g>
   <g id="patch_59">
    <path d="M 313.683051 307.584 
L 317.109484 307.584 
L 317.109484 293.504 
L 313.683051 293.504 
z
" clip-path="url(#p0beeb0e18b)"/>
   </g>
   <g id="patch_60">
    <path d="M 317.966093 307.584 
L 321.392526 307.584 
L 321.392526 293.504 
L 317.966093 293.504 
z
" clip-path="url(#p0beeb0e18b)"/>
   </g>
   <g id="patch_61">
    <path d="M 322.249134 307.584 
L 325.675567 307.584 
L 325.675567 293.504 
L 322.249134 293.504 
z
" clip-path="url(#p0beeb0e18b)"/>
   </g>
   <g id="patch_62">
    <path d="M 326.532176 307.584 
L 329.958609 307.584 
L 329.958609 293.504 
L 326.532176 293.504 
z
" clip-path="url(#p0beeb0e18b)"/>
   </g>
   <g id="patch_63">
    <path d="M 330.815217 307.584 
L 334.24165 307.584 
L 334.24165 293.504 
L 330.815217 293.504 
z
" clip-path="url(#p0beeb0e18b)"/>
   </g>
   <g id="patch_64">
    <path d="M 335.098259 307.584 
L 338.524692 307.584 
L 338.524692 293.504 
L 335.098259 293.504 
z
" clip-path="url(#p0beeb0e18b)"/>
   </g>
   <g id="patch_65">
    <path d="M 339.3813 307.584 
L 342.807733 307.584 
L 342.807733 293.504 
L 339.3813 293.504 
z
" clip-path="url(#p0beeb0e18b)"/>
   </g>
   <g id="patch_66">
    <path d="M 343.664342 307.584 
L 347.090775 307.584 
L 347.090775 293.504 
L 343.664342 293.504 
z
" clip-path="url(#p0beeb0e18b)"/>
   </g>
   <g id="patch_67">
    <path d="M 347.947383 307.584 
L 351.373816 307.584 
L 351.373816 293.504 
L 347.947383 293.504 
z
" clip-path="url(#p0beeb0e18b)"/>
   </g>
   <g id="patch_68">
    <path d="M 352.230425 307.584 
L 355.656858 307.584 
L 355.656858 293.504 
L 352.230425 293.504 
z
" clip-path="url(#p0beeb0e18b)"/>
   </g>
   <g id="patch_69">
    <path d="M 356.513466 307.584 
L 359.939899 307.584 
L 359.939899 293.504 
L 356.513466 293.504 
z
" clip-path="url(#p0beeb0e18b)"/>
   </g>
   <g id="patch_70">
    <path d="M 360.796508 307.584 
L 364.222941 307.584 
L 364.222941 293.504 
L 360.796508 293.504 
z
" clip-path="url(#p0beeb0e18b)"/>
   </g>
   <g id="patch_71">
    <path d="M 365.079549 307.584 
L 368.505982 307.584 
L 368.505982 293.504 
L 365.079549 293.504 
z
" clip-path="url(#p0beeb0e18b)"/>
   </g>
   <g id="patch_72">
    <path d="M 369.362591 307.584 
L 372.789024 307.584 
L 372.789024 293.504 
L 369.362591 293.504 
z
" clip-path="url(#p0beeb0e18b)"/>
   </g>
   <g id="patch_73">
    <path d="M 373.645632 307.584 
L 377.072065 307.584 
L 377.072065 293.504 
L 373.645632 293.504 
z
" clip-path="url(#p0beeb0e18b)"/>
   </g>
   <g id="patch_74">
    <path d="M 377.928674 307.584 
L 381.355107 307.584 
L 381.355107 293.504 
L 377.928674 293.504 
z
" clip-path="url(#p0beeb0e18b)"/>
   </g>
   <g id="patch_75">
    <path d="M 382.211715 307.584 
L 385.638148 307.584 
L 385.638148 293.504 
L 382.211715 293.504 
z
" clip-path="url(#p0beeb0e18b)"/>
   </g>
   <g id="patch_76">
    <path d="M 386.494757 307.584 
L 389.92119 307.584 
L 389.92119 293.504 
L 386.494757 293.504 
z
" clip-path="url(#p0beeb0e18b)"/>
   </g>
   <g id="patch_77">
    <path d="M 390.777798 307.584 
L 394.204231 307.584 
L 394.204231 293.504 
L 390.777798 293.504 
z
" clip-path="url(#p0beeb0e18b)"/>
   </g>
   <g id="patch_78">
    <path d="M 395.06084 307.584 
L 398.487273 307.584 
L 398.487273 293.504 
L 395.06084 293.504 
z
" clip-path="url(#p0beeb0e18b)"/>
   </g>
   <g id="matplotlib.axis_1">
    <g id="xtick_1">
     <g id="line2d_1">
      <defs>
       <path id="m4cc7c9ee45" d="M 0 0 
L 0 3.5 
" style="stroke: #000000; stroke-width: 0.8"/>
      </defs>
      <g>
       <use xlink:href="#m4cc7c9ee45" x="71.262902" y="307.584" style="stroke: #000000; stroke-width: 0.8"/>
      </g>
     </g>
     <g id="text_1">
      <!-- 0 -->
      <g transform="translate(68.081652 322.182437) scale(0.1 -0.1)">
       <defs>
        <path id="DejaVuSans-30" d="M 2034 4250 
Q 1547 4250 1301 3770 
Q 1056 3291 1056 2328 
Q 1056 1369 1301 889 
Q 1547 409 2034 409 
Q 2525 409 2770 889 
Q 3016 1369 3016 2328 
Q 3016 3291 2770 3770 
Q 2525 4250 2034 4250 
z
M 2034 4750 
Q 2819 4750 3233 4129 
Q 3647 3509 3647 2328 
Q 3647 1150 3233 529 
Q 2819 -91 2034 -91 
Q 1250 -91 836 529 
Q 422 1150 422 2328 
Q 422 3509 836 4129 
Q 1250 4750 2034 4750 
z
" transform="scale(0.015625)"/>
       </defs>
       <use xlink:href="#DejaVuSans-30"/>
      </g>
     </g>
    </g>
    <g id="xtick_2">
     <g id="line2d_2">
      <g>
       <use xlink:href="#m4cc7c9ee45" x="114.093317" y="307.584" style="stroke: #000000; stroke-width: 0.8"/>
      </g>
     </g>
     <g id="text_2">
      <!-- 10 -->
      <g transform="translate(107.730817 322.182437) scale(0.1 -0.1)">
       <defs>
        <path id="DejaVuSans-31" d="M 794 531 
L 1825 531 
L 1825 4091 
L 703 3866 
L 703 4441 
L 1819 4666 
L 2450 4666 
L 2450 531 
L 3481 531 
L 3481 0 
L 794 0 
L 794 531 
z
" transform="scale(0.015625)"/>
       </defs>
       <use xlink:href="#DejaVuSans-31"/>
       <use xlink:href="#DejaVuSans-30" transform="translate(63.623047 0)"/>
      </g>
     </g>
    </g>
    <g id="xtick_3">
     <g id="line2d_3">
      <g>
       <use xlink:href="#m4cc7c9ee45" x="156.923732" y="307.584" style="stroke: #000000; stroke-width: 0.8"/>
      </g>
     </g>
     <g id="text_3">
      <!-- 20 -->
      <g transform="translate(150.561232 322.182437) scale(0.1 -0.1)">
       <defs>
        <path id="DejaVuSans-32" d="M 1228 531 
L 3431 531 
L 3431 0 
L 469 0 
L 469 531 
Q 828 903 1448 1529 
Q 2069 2156 2228 2338 
Q 2531 2678 2651 2914 
Q 2772 3150 2772 3378 
Q 2772 3750 2511 3984 
Q 2250 4219 1831 4219 
Q 1534 4219 1204 4116 
Q 875 4013 500 3803 
L 500 4441 
Q 881 4594 1212 4672 
Q 1544 4750 1819 4750 
Q 2544 4750 2975 4387 
Q 3406 4025 3406 3419 
Q 3406 3131 3298 2873 
Q 3191 2616 2906 2266 
Q 2828 2175 2409 1742 
Q 1991 1309 1228 531 
z
" transform="scale(0.015625)"/>
       </defs>
       <use xlink:href="#DejaVuSans-32"/>
       <use xlink:href="#DejaVuSans-30" transform="translate(63.623047 0)"/>
      </g>
     </g>
    </g>
    <g id="xtick_4">
     <g id="line2d_4">
      <g>
       <use xlink:href="#m4cc7c9ee45" x="199.754147" y="307.584" style="stroke: #000000; stroke-width: 0.8"/>
      </g>
     </g>
     <g id="text_4">
      <!-- 30 -->
      <g transform="translate(193.391647 322.182437) scale(0.1 -0.1)">
       <defs>
        <path id="DejaVuSans-33" d="M 2597 2516 
Q 3050 2419 3304 2112 
Q 3559 1806 3559 1356 
Q 3559 666 3084 287 
Q 2609 -91 1734 -91 
Q 1441 -91 1130 -33 
Q 819 25 488 141 
L 488 750 
Q 750 597 1062 519 
Q 1375 441 1716 441 
Q 2309 441 2620 675 
Q 2931 909 2931 1356 
Q 2931 1769 2642 2001 
Q 2353 2234 1838 2234 
L 1294 2234 
L 1294 2753 
L 1863 2753 
Q 2328 2753 2575 2939 
Q 2822 3125 2822 3475 
Q 2822 3834 2567 4026 
Q 2313 4219 1838 4219 
Q 1578 4219 1281 4162 
Q 984 4106 628 3988 
L 628 4550 
Q 988 4650 1302 4700 
Q 1616 4750 1894 4750 
Q 2613 4750 3031 4423 
Q 3450 4097 3450 3541 
Q 3450 3153 3228 2886 
Q 3006 2619 2597 2516 
z
" transform="scale(0.015625)"/>
       </defs>
       <use xlink:href="#DejaVuSans-33"/>
       <use xlink:href="#DejaVuSans-30" transform="translate(63.623047 0)"/>
      </g>
     </g>
    </g>
    <g id="xtick_5">
     <g id="line2d_5">
      <g>
       <use xlink:href="#m4cc7c9ee45" x="242.584562" y="307.584" style="stroke: #000000; stroke-width: 0.8"/>
      </g>
     </g>
     <g id="text_5">
      <!-- 40 -->
      <g transform="translate(236.222062 322.182437) scale(0.1 -0.1)">
       <defs>
        <path id="DejaVuSans-34" d="M 2419 4116 
L 825 1625 
L 2419 1625 
L 2419 4116 
z
M 2253 4666 
L 3047 4666 
L 3047 1625 
L 3713 1625 
L 3713 1100 
L 3047 1100 
L 3047 0 
L 2419 0 
L 2419 1100 
L 313 1100 
L 313 1709 
L 2253 4666 
z
" transform="scale(0.015625)"/>
       </defs>
       <use xlink:href="#DejaVuSans-34"/>
       <use xlink:href="#DejaVuSans-30" transform="translate(63.623047 0)"/>
      </g>
     </g>
    </g>
    <g id="xtick_6">
     <g id="line2d_6">
      <g>
       <use xlink:href="#m4cc7c9ee45" x="285.414977" y="307.584" style="stroke: #000000; stroke-width: 0.8"/>
      </g>
     </g>
     <g id="text_6">
      <!-- 50 -->
      <g transform="translate(279.052477 322.182437) scale(0.1 -0.1)">
       <defs>
        <path id="DejaVuSans-35" d="M 691 4666 
L 3169 4666 
L 3169 4134 
L 1269 4134 
L 1269 2991 
Q 1406 3038 1543 3061 
Q 1681 3084 1819 3084 
Q 2600 3084 3056 2656 
Q 3513 2228 3513 1497 
Q 3513 744 3044 326 
Q 2575 -91 1722 -91 
Q 1428 -91 1123 -41 
Q 819 9 494 109 
L 494 744 
Q 775 591 1075 516 
Q 1375 441 1709 441 
Q 2250 441 2565 725 
Q 2881 1009 2881 1497 
Q 2881 1984 2565 2268 
Q 2250 2553 1709 2553 
Q 1456 2553 1204 2497 
Q 953 2441 691 2322 
L 691 4666 
z
" transform="scale(0.015625)"/>
       </defs>
       <use xlink:href="#DejaVuSans-35"/>
       <use xlink:href="#DejaVuSans-30" transform="translate(63.623047 0)"/>
      </g>
     </g>
    </g>
    <g id="xtick_7">
     <g id="line2d_7">
      <g>
       <use xlink:href="#m4cc7c9ee45" x="328.245392" y="307.584" style="stroke: #000000; stroke-width: 0.8"/>
      </g>
     </g>
     <g id="text_7">
      <!-- 60 -->
      <g transform="translate(321.882892 322.182437) scale(0.1 -0.1)">
       <defs>
        <path id="DejaVuSans-36" d="M 2113 2584 
Q 1688 2584 1439 2293 
Q 1191 2003 1191 1497 
Q 1191 994 1439 701 
Q 1688 409 2113 409 
Q 2538 409 2786 701 
Q 3034 994 3034 1497 
Q 3034 2003 2786 2293 
Q 2538 2584 2113 2584 
z
M 3366 4563 
L 3366 3988 
Q 3128 4100 2886 4159 
Q 2644 4219 2406 4219 
Q 1781 4219 1451 3797 
Q 1122 3375 1075 2522 
Q 1259 2794 1537 2939 
Q 1816 3084 2150 3084 
Q 2853 3084 3261 2657 
Q 3669 2231 3669 1497 
Q 3669 778 3244 343 
Q 2819 -91 2113 -91 
Q 1303 -91 875 529 
Q 447 1150 447 2328 
Q 447 3434 972 4092 
Q 1497 4750 2381 4750 
Q 2619 4750 2861 4703 
Q 3103 4656 3366 4563 
z
" transform="scale(0.015625)"/>
       </defs>
       <use xlink:href="#DejaVuSans-36"/>
       <use xlink:href="#DejaVuSans-30" transform="translate(63.623047 0)"/>
      </g>
     </g>
    </g>
    <g id="xtick_8">
     <g id="line2d_8">
      <g>
       <use xlink:href="#m4cc7c9ee45" x="371.075807" y="307.584" style="stroke: #000000; stroke-width: 0.8"/>
      </g>
     </g>
     <g id="text_8">
      <!-- 70 -->
      <g transform="translate(364.713307 322.182437) scale(0.1 -0.1)">
       <defs>
        <path id="DejaVuSans-37" d="M 525 4666 
L 3525 4666 
L 3525 4397 
L 1831 0 
L 1172 0 
L 2766 4134 
L 525 4134 
L 525 4666 
z
" transform="scale(0.015625)"/>
       </defs>
       <use xlink:href="#DejaVuSans-37"/>
       <use xlink:href="#DejaVuSans-30" transform="translate(63.623047 0)"/>
      </g>
     </g>
    </g>
    <g id="xtick_9">
     <g id="line2d_9">
      <g>
       <use xlink:href="#m4cc7c9ee45" x="413.906222" y="307.584" style="stroke: #000000; stroke-width: 0.8"/>
      </g>
     </g>
     <g id="text_9">
      <!-- 80 -->
      <g transform="translate(407.543722 322.182437) scale(0.1 -0.1)">
       <defs>
        <path id="DejaVuSans-38" d="M 2034 2216 
Q 1584 2216 1326 1975 
Q 1069 1734 1069 1313 
Q 1069 891 1326 650 
Q 1584 409 2034 409 
Q 2484 409 2743 651 
Q 3003 894 3003 1313 
Q 3003 1734 2745 1975 
Q 2488 2216 2034 2216 
z
M 1403 2484 
Q 997 2584 770 2862 
Q 544 3141 544 3541 
Q 544 4100 942 4425 
Q 1341 4750 2034 4750 
Q 2731 4750 3128 4425 
Q 3525 4100 3525 3541 
Q 3525 3141 3298 2862 
Q 3072 2584 2669 2484 
Q 3125 2378 3379 2068 
Q 3634 1759 3634 1313 
Q 3634 634 3220 271 
Q 2806 -91 2034 -91 
Q 1263 -91 848 271 
Q 434 634 434 1313 
Q 434 1759 690 2068 
Q 947 2378 1403 2484 
z
M 1172 3481 
Q 1172 3119 1398 2916 
Q 1625 2713 2034 2713 
Q 2441 2713 2670 2916 
Q 2900 3119 2900 3481 
Q 2900 3844 2670 4047 
Q 2441 4250 2034 4250 
Q 1625 4250 1398 4047 
Q 1172 3844 1172 3481 
z
" transform="scale(0.015625)"/>
       </defs>
       <use xlink:href="#DejaVuSans-38"/>
       <use xlink:href="#DejaVuSans-30" transform="translate(63.623047 0)"/>
      </g>
     </g>
    </g>
    <g id="text_10">
     <!-- genotype -->
     <g transform="translate(212.510781 335.860562) scale(0.1 -0.1)">
      <defs>
       <path id="DejaVuSans-67" d="M 2906 1791 
Q 2906 2416 2648 2759 
Q 2391 3103 1925 3103 
Q 1463 3103 1205 2759 
Q 947 2416 947 1791 
Q 947 1169 1205 825 
Q 1463 481 1925 481 
Q 2391 481 2648 825 
Q 2906 1169 2906 1791 
z
M 3481 434 
Q 3481 -459 3084 -895 
Q 2688 -1331 1869 -1331 
Q 1566 -1331 1297 -1286 
Q 1028 -1241 775 -1147 
L 775 -588 
Q 1028 -725 1275 -790 
Q 1522 -856 1778 -856 
Q 2344 -856 2625 -561 
Q 2906 -266 2906 331 
L 2906 616 
Q 2728 306 2450 153 
Q 2172 0 1784 0 
Q 1141 0 747 490 
Q 353 981 353 1791 
Q 353 2603 747 3093 
Q 1141 3584 1784 3584 
Q 2172 3584 2450 3431 
Q 2728 3278 2906 2969 
L 2906 3500 
L 3481 3500 
L 3481 434 
z
" transform="scale(0.015625)"/>
       <path id="DejaVuSans-65" d="M 3597 1894 
L 3597 1613 
L 953 1613 
Q 991 1019 1311 708 
Q 1631 397 2203 397 
Q 2534 397 2845 478 
Q 3156 559 3463 722 
L 3463 178 
Q 3153 47 2828 -22 
Q 2503 -91 2169 -91 
Q 1331 -91 842 396 
Q 353 884 353 1716 
Q 353 2575 817 3079 
Q 1281 3584 2069 3584 
Q 2775 3584 3186 3129 
Q 3597 2675 3597 1894 
z
M 3022 2063 
Q 3016 2534 2758 2815 
Q 2500 3097 2075 3097 
Q 1594 3097 1305 2825 
Q 1016 2553 972 2059 
L 3022 2063 
z
" transform="scale(0.015625)"/>
       <path id="DejaVuSans-6e" d="M 3513 2113 
L 3513 0 
L 2938 0 
L 2938 2094 
Q 2938 2591 2744 2837 
Q 2550 3084 2163 3084 
Q 1697 3084 1428 2787 
Q 1159 2491 1159 1978 
L 1159 0 
L 581 0 
L 581 3500 
L 1159 3500 
L 1159 2956 
Q 1366 3272 1645 3428 
Q 1925 3584 2291 3584 
Q 2894 3584 3203 3211 
Q 3513 2838 3513 2113 
z
" transform="scale(0.015625)"/>
       <path id="DejaVuSans-6f" d="M 1959 3097 
Q 1497 3097 1228 2736 
Q 959 2375 959 1747 
Q 959 1119 1226 758 
Q 1494 397 1959 397 
Q 2419 397 2687 759 
Q 2956 1122 2956 1747 
Q 2956 2369 2687 2733 
Q 2419 3097 1959 3097 
z
M 1959 3584 
Q 2709 3584 3137 3096 
Q 3566 2609 3566 1747 
Q 3566 888 3137 398 
Q 2709 -91 1959 -91 
Q 1206 -91 779 398 
Q 353 888 353 1747 
Q 353 2609 779 3096 
Q 1206 3584 1959 3584 
z
" transform="scale(0.015625)"/>
       <path id="DejaVuSans-74" d="M 1172 4494 
L 1172 3500 
L 2356 3500 
L 2356 3053 
L 1172 3053 
L 1172 1153 
Q 1172 725 1289 603 
Q 1406 481 1766 481 
L 2356 481 
L 2356 0 
L 1766 0 
Q 1100 0 847 248 
Q 594 497 594 1153 
L 594 3053 
L 172 3053 
L 172 3500 
L 594 3500 
L 594 4494 
L 1172 4494 
z
" transform="scale(0.015625)"/>
       <path id="DejaVuSans-79" d="M 2059 -325 
Q 1816 -950 1584 -1140 
Q 1353 -1331 966 -1331 
L 506 -1331 
L 506 -850 
L 844 -850 
Q 1081 -850 1212 -737 
Q 1344 -625 1503 -206 
L 1606 56 
L 191 3500 
L 800 3500 
L 1894 763 
L 2988 3500 
L 3597 3500 
L 2059 -325 
z
" transform="scale(0.015625)"/>
       <path id="DejaVuSans-70" d="M 1159 525 
L 1159 -1331 
L 581 -1331 
L 581 3500 
L 1159 3500 
L 1159 2969 
Q 1341 3281 1617 3432 
Q 1894 3584 2278 3584 
Q 2916 3584 3314 3078 
Q 3713 2572 3713 1747 
Q 3713 922 3314 415 
Q 2916 -91 2278 -91 
Q 1894 -91 1617 61 
Q 1341 213 1159 525 
z
M 3116 1747 
Q 3116 2381 2855 2742 
Q 2594 3103 2138 3103 
Q 1681 3103 1420 2742 
Q 1159 2381 1159 1747 
Q 1159 1113 1420 752 
Q 1681 391 2138 391 
Q 2594 391 2855 752 
Q 3116 1113 3116 1747 
z
" transform="scale(0.015625)"/>
      </defs>
      <use xlink:href="#DejaVuSans-67"/>
      <use xlink:href="#DejaVuSans-65" transform="translate(63.476562 0)"/>
      <use xlink:href="#DejaVuSans-6e" transform="translate(125 0)"/>
      <use xlink:href="#DejaVuSans-6f" transform="translate(188.378906 0)"/>
      <use xlink:href="#DejaVuSans-74" transform="translate(249.560547 0)"/>
      <use xlink:href="#DejaVuSans-79" transform="translate(288.769531 0)"/>
      <use xlink:href="#DejaVuSans-70" transform="translate(347.949219 0)"/>
      <use xlink:href="#DejaVuSans-65" transform="translate(411.425781 0)"/>
     </g>
    </g>
   </g>
   <g id="matplotlib.axis_2">
    <g id="ytick_1">
     <g id="line2d_10">
      <defs>
       <path id="m90bdad8ae4" d="M 0 0 
L -3.5 0 
" style="stroke: #000000; stroke-width: 0.8"/>
      </defs>
      <g>
       <use xlink:href="#m90bdad8ae4" x="57.6" y="307.584" style="stroke: #000000; stroke-width: 0.8"/>
      </g>
     </g>
     <g id="text_11">
      <!-- 0.0 -->
      <g transform="translate(34.696875 311.383219) scale(0.1 -0.1)">
       <defs>
        <path id="DejaVuSans-2e" d="M 684 794 
L 1344 794 
L 1344 0 
L 684 0 
L 684 794 
z
" transform="scale(0.015625)"/>
       </defs>
       <use xlink:href="#DejaVuSans-30"/>
       <use xlink:href="#DejaVuSans-2e" transform="translate(63.623047 0)"/>
       <use xlink:href="#DejaVuSans-30" transform="translate(95.410156 0)"/>
      </g>
     </g>
    </g>
    <g id="ytick_2">
     <g id="line2d_11">
      <g>
       <use xlink:href="#m90bdad8ae4" x="57.6" y="272.384" style="stroke: #000000; stroke-width: 0.8"/>
      </g>
     </g>
     <g id="text_12">
      <!-- 2.5 -->
      <g transform="translate(34.696875 276.183219) scale(0.1 -0.1)">
       <use xlink:href="#DejaVuSans-32"/>
       <use xlink:href="#DejaVuSans-2e" transform="translate(63.623047 0)"/>
       <use xlink:href="#DejaVuSans-35" transform="translate(95.410156 0)"/>
      </g>
     </g>
    </g>
    <g id="ytick_3">
     <g id="line2d_12">
      <g>
       <use xlink:href="#m90bdad8ae4" x="57.6" y="237.184" style="stroke: #000000; stroke-width: 0.8"/>
      </g>
     </g>
     <g id="text_13">
      <!-- 5.0 -->
      <g transform="translate(34.696875 240.983219) scale(0.1 -0.1)">
       <use xlink:href="#DejaVuSans-35"/>
       <use xlink:href="#DejaVuSans-2e" transform="translate(63.623047 0)"/>
       <use xlink:href="#DejaVuSans-30" transform="translate(95.410156 0)"/>
      </g>
     </g>
    </g>
    <g id="ytick_4">
     <g id="line2d_13">
      <g>
       <use xlink:href="#m90bdad8ae4" x="57.6" y="201.984" style="stroke: #000000; stroke-width: 0.8"/>
      </g>
     </g>
     <g id="text_14">
      <!-- 7.5 -->
      <g transform="translate(34.696875 205.783219) scale(0.1 -0.1)">
       <use xlink:href="#DejaVuSans-37"/>
       <use xlink:href="#DejaVuSans-2e" transform="translate(63.623047 0)"/>
       <use xlink:href="#DejaVuSans-35" transform="translate(95.410156 0)"/>
      </g>
     </g>
    </g>
    <g id="ytick_5">
     <g id="line2d_14">
      <g>
       <use xlink:href="#m90bdad8ae4" x="57.6" y="166.784" style="stroke: #000000; stroke-width: 0.8"/>
      </g>
     </g>
     <g id="text_15">
      <!-- 10.0 -->
      <g transform="translate(28.334375 170.583219) scale(0.1 -0.1)">
       <use xlink:href="#DejaVuSans-31"/>
       <use xlink:href="#DejaVuSans-30" transform="translate(63.623047 0)"/>
       <use xlink:href="#DejaVuSans-2e" transform="translate(127.246094 0)"/>
       <use xlink:href="#DejaVuSans-30" transform="translate(159.033203 0)"/>
      </g>
     </g>
    </g>
    <g id="ytick_6">
     <g id="line2d_15">
      <g>
       <use xlink:href="#m90bdad8ae4" x="57.6" y="131.584" style="stroke: #000000; stroke-width: 0.8"/>
      </g>
     </g>
     <g id="text_16">
      <!-- 12.5 -->
      <g transform="translate(28.334375 135.383219) scale(0.1 -0.1)">
       <use xlink:href="#DejaVuSans-31"/>
       <use xlink:href="#DejaVuSans-32" transform="translate(63.623047 0)"/>
       <use xlink:href="#DejaVuSans-2e" transform="translate(127.246094 0)"/>
       <use xlink:href="#DejaVuSans-35" transform="translate(159.033203 0)"/>
      </g>
     </g>
    </g>
    <g id="ytick_7">
     <g id="line2d_16">
      <g>
       <use xlink:href="#m90bdad8ae4" x="57.6" y="96.384" style="stroke: #000000; stroke-width: 0.8"/>
      </g>
     </g>
     <g id="text_17">
      <!-- 15.0 -->
      <g transform="translate(28.334375 100.183219) scale(0.1 -0.1)">
       <use xlink:href="#DejaVuSans-31"/>
       <use xlink:href="#DejaVuSans-35" transform="translate(63.623047 0)"/>
       <use xlink:href="#DejaVuSans-2e" transform="translate(127.246094 0)"/>
       <use xlink:href="#DejaVuSans-30" transform="translate(159.033203 0)"/>
      </g>
     </g>
    </g>
    <g id="ytick_8">
     <g id="line2d_17">
      <g>
       <use xlink:href="#m90bdad8ae4" x="57.6" y="61.184" style="stroke: #000000; stroke-width: 0.8"/>
      </g>
     </g>
     <g id="text_18">
      <!-- 17.5 -->
      <g transform="translate(28.334375 64.983219) scale(0.1 -0.1)">
       <use xlink:href="#DejaVuSans-31"/>
       <use xlink:href="#DejaVuSans-37" transform="translate(63.623047 0)"/>
       <use xlink:href="#DejaVuSans-2e" transform="translate(127.246094 0)"/>
       <use xlink:href="#DejaVuSans-35" transform="translate(159.033203 0)"/>
      </g>
     </g>
    </g>
    <g id="text_19">
     <!-- abundance -->
     <g transform="translate(22.254687 202.336594) rotate(-90) scale(0.1 -0.1)">
      <defs>
       <path id="DejaVuSans-61" d="M 2194 1759 
Q 1497 1759 1228 1600 
Q 959 1441 959 1056 
Q 959 750 1161 570 
Q 1363 391 1709 391 
Q 2188 391 2477 730 
Q 2766 1069 2766 1631 
L 2766 1759 
L 2194 1759 
z
M 3341 1997 
L 3341 0 
L 2766 0 
L 2766 531 
Q 2569 213 2275 61 
Q 1981 -91 1556 -91 
Q 1019 -91 701 211 
Q 384 513 384 1019 
Q 384 1609 779 1909 
Q 1175 2209 1959 2209 
L 2766 2209 
L 2766 2266 
Q 2766 2663 2505 2880 
Q 2244 3097 1772 3097 
Q 1472 3097 1187 3025 
Q 903 2953 641 2809 
L 641 3341 
Q 956 3463 1253 3523 
Q 1550 3584 1831 3584 
Q 2591 3584 2966 3190 
Q 3341 2797 3341 1997 
z
" transform="scale(0.015625)"/>
       <path id="DejaVuSans-62" d="M 3116 1747 
Q 3116 2381 2855 2742 
Q 2594 3103 2138 3103 
Q 1681 3103 1420 2742 
Q 1159 2381 1159 1747 
Q 1159 1113 1420 752 
Q 1681 391 2138 391 
Q 2594 391 2855 752 
Q 3116 1113 3116 1747 
z
M 1159 2969 
Q 1341 3281 1617 3432 
Q 1894 3584 2278 3584 
Q 2916 3584 3314 3078 
Q 3713 2572 3713 1747 
Q 3713 922 3314 415 
Q 2916 -91 2278 -91 
Q 1894 -91 1617 61 
Q 1341 213 1159 525 
L 1159 0 
L 581 0 
L 581 4863 
L 1159 4863 
L 1159 2969 
z
" transform="scale(0.015625)"/>
       <path id="DejaVuSans-75" d="M 544 1381 
L 544 3500 
L 1119 3500 
L 1119 1403 
Q 1119 906 1312 657 
Q 1506 409 1894 409 
Q 2359 409 2629 706 
Q 2900 1003 2900 1516 
L 2900 3500 
L 3475 3500 
L 3475 0 
L 2900 0 
L 2900 538 
Q 2691 219 2414 64 
Q 2138 -91 1772 -91 
Q 1169 -91 856 284 
Q 544 659 544 1381 
z
M 1991 3584 
L 1991 3584 
z
" transform="scale(0.015625)"/>
       <path id="DejaVuSans-64" d="M 2906 2969 
L 2906 4863 
L 3481 4863 
L 3481 0 
L 2906 0 
L 2906 525 
Q 2725 213 2448 61 
Q 2172 -91 1784 -91 
Q 1150 -91 751 415 
Q 353 922 353 1747 
Q 353 2572 751 3078 
Q 1150 3584 1784 3584 
Q 2172 3584 2448 3432 
Q 2725 3281 2906 2969 
z
M 947 1747 
Q 947 1113 1208 752 
Q 1469 391 1925 391 
Q 2381 391 2643 752 
Q 2906 1113 2906 1747 
Q 2906 2381 2643 2742 
Q 2381 3103 1925 3103 
Q 1469 3103 1208 2742 
Q 947 2381 947 1747 
z
" transform="scale(0.015625)"/>
       <path id="DejaVuSans-63" d="M 3122 3366 
L 3122 2828 
Q 2878 2963 2633 3030 
Q 2388 3097 2138 3097 
Q 1578 3097 1268 2742 
Q 959 2388 959 1747 
Q 959 1106 1268 751 
Q 1578 397 2138 397 
Q 2388 397 2633 464 
Q 2878 531 3122 666 
L 3122 134 
Q 2881 22 2623 -34 
Q 2366 -91 2075 -91 
Q 1284 -91 818 406 
Q 353 903 353 1747 
Q 353 2603 823 3093 
Q 1294 3584 2113 3584 
Q 2378 3584 2631 3529 
Q 2884 3475 3122 3366 
z
" transform="scale(0.015625)"/>
      </defs>
      <use xlink:href="#DejaVuSans-61"/>
      <use xlink:href="#DejaVuSans-62" transform="translate(61.279297 0)"/>
      <use xlink:href="#DejaVuSans-75" transform="translate(124.755859 0)"/>
      <use xlink:href="#DejaVuSans-6e" transform="translate(188.134766 0)"/>
      <use xlink:href="#DejaVuSans-64" transform="translate(251.513672 0)"/>
      <use xlink:href="#DejaVuSans-61" transform="translate(314.990234 0)"/>
      <use xlink:href="#DejaVuSans-6e" transform="translate(376.269531 0)"/>
      <use xlink:href="#DejaVuSans-63" transform="translate(439.648438 0)"/>
      <use xlink:href="#DejaVuSans-65" transform="translate(494.628906 0)"/>
     </g>
    </g>
   </g>
   <g id="patch_79">
    <path d="M 57.6 307.584 
L 57.6 41.472 
" style="fill: none; stroke: #000000; stroke-width: 0.8; stroke-linejoin: miter; stroke-linecap: square"/>
   </g>
   <g id="patch_80">
    <path d="M 414.72 307.584 
L 414.72 41.472 
" style="fill: none; stroke: #000000; stroke-width: 0.8; stroke-linejoin: miter; stroke-linecap: square"/>
   </g>
   <g id="patch_81">
    <path d="M 57.6 307.584 
L 414.72 307.584 
" style="fill: none; stroke: #000000; stroke-width: 0.8; stroke-linejoin: miter; stroke-linecap: square"/>
   </g>
   <g id="patch_82">
    <path d="M 57.6 41.472 
L 414.72 41.472 
" style="fill: none; stroke: #000000; stroke-width: 0.8; stroke-linejoin: miter; stroke-linecap: square"/>
   </g>
  </g>
 </g>
 <defs>
  <clipPath id="p0beeb0e18b">
   <rect x="57.6" y="41.472" width="357.12" height="266.112"/>
  </clipPath>
 </defs>
</svg>
